<svg xmlns="http://www.w3.org/2000/svg" width="24" height="24" fill="currentColor" viewBox="0 0 24 24">
  <path d="m13.353 13.368-.885 2.39a.3.3 0 0 0 0 .205l1.523 4.112 1.76-1-2.113-5.707a.152.152 0 0 0-.285 0Zm1.774-4.019a.152.152 0 0 0-.285 0l-.885 2.39a.3.3 0 0 0 0 .205l2.494 6.732 1.76-1-3.084-8.327Z"/>
  <path d="M11.998 4.115a.3.3 0 0 1 .126.033l6.715 3.818a.25.25 0 0 1 .126.214v7.635c0 .089-.048.17-.126.214l-6.715 3.819a.25.25 0 0 1-.126.032.3.3 0 0 1-.125-.032l-6.715-3.815a.25.25 0 0 1-.126-.215V8.182c0-.089.048-.17.126-.215l6.715-3.818a.26.26 0 0 1 .125-.034Zm0-1.115c-.238 0-.478.06-.692.183L4.593 7A1.36 1.36 0 0 0 3.9 8.182v7.635c0 .487.264.938.693 1.181l6.714 3.819a1.41 1.41 0 0 0 1.386 0l6.714-3.818a1.36 1.36 0 0 0 .693-1.182V8.182A1.36 1.36 0 0 0 19.407 7L12.69 3.183A1.4 1.4 0 0 0 11.998 3Z"/>
  <path d="m7.559 18.685.617-1.666 1.244 1.018-1.163 1.046-.698-.398Zm3.874-11.05H9.73a.3.3 0 0 0-.285.197l-3.65 9.852 1.763 1 4.017-10.848a.15.15 0 0 0-.143-.201Z"/>
  <path d="M14.412 7.635h-1.703a.3.3 0 0 0-.284.197l-4.167 11.25 1.76 1 4.536-12.246a.15.15 0 0 0-.073-.184.151.151 0 0 0-.07-.017Z"/>
</svg>
