<svg xmlns="http://www.w3.org/2000/svg" width="12" height="18" fill="currentColor" viewBox="0 0 12 18">
  <path d="M6 0v6.652l5.625 2.516L6 0Zm0 0L.375 9.166 6 6.652V0Zm0 13.478V18l5.625-7.785L6 13.478ZM6 18v-4.522L.375 10.215 6 18Z"/>
  <path d="m6 12.43 5.625-3.263L6 6.652v5.778ZM.375 9.167 6 12.43V6.652L.375 9.167Z"/>
  <path fill-rule="evenodd" d="M6 12.43.375 9.168 6 0l5.625 9.166L6 12.43ZM.75 8.902 5.912.492v6.115L.75 8.902Zm-.077.229 5.239-2.327v5.364L.673 9.131Zm5.418-2.327v5.364l5.233-3.037-5.233-2.327Zm0-.197 5.162 2.295L6.091.492v6.115Z" clip-rule="evenodd"/>
  <path fill-rule="evenodd" d="M6 13.407.375 10.212 6 18l5.625-7.79L6 13.408Zm-4.995-2.633 4.906 2.79v4.005l-4.906-6.795Zm5.085 2.79v4.005l4.904-6.795-4.904 2.79Z" clip-rule="evenodd"/>
</svg>
