<svg xmlns="http://www.w3.org/2000/svg" width="18" height="15" fill="none" viewBox="0 0 18 15">
  <path fill="#fff" d="M15.413 3.219a.62.62 0 0 1-.411.162H.58c-.512 0-.77-.585-.416-.928L2.533.17a.6.6 0 0 1 .41-.17H17.42c.517 0 .77.591.41.935l-2.417 2.284Zm0 11.255a.62.62 0 0 1-.411.157H.58c-.512 0-.77-.58-.416-.922l2.369-2.29a.6.6 0 0 1 .41-.163H17.42c.517 0 .77.585.41.928l-2.417 2.29Zm0-8.686a.62.62 0 0 0-.411-.157H.58c-.512 0-.77.58-.416.922l2.369 2.29a.6.6 0 0 0 .41.163H17.42c.517 0 .77-.585.41-.928l-2.417-2.29Z"/>
</svg>
