<svg xmlns="http://www.w3.org/2000/svg" width="24" height="24" fill="none" viewBox="0 0 24 24">
    <mask id="sol-token-mask" width="24" height="24" x="0" y="0" maskUnits="userSpaceOnUse" style="mask-type:luminance">
        <path fill="#fff" d="M0 0h24v24H0V0Z"/>
    </mask>
    <g mask="url(#sol-token-mask)">
        <path fill="url(#sol-token-path-fill)" d="M24 0H0v24h24V0Z"/>
        <path fill="#fff" d="M17.7 8.356a.55.55 0 0 1-.364.145H4.515c-.456 0-.686-.52-.37-.825l2.104-2.03c.1-.095.23-.15.365-.15h12.87c.46 0 .686.525.366.83l-2.15 2.03Zm0 10.006c-.1.09-.23.14-.364.14H4.515c-.456 0-.686-.515-.37-.82l2.104-2.035c.1-.095.23-.145.365-.145h12.87c.46 0 .686.52.366.825l-2.15 2.035Zm0-7.72a.55.55 0 0 0-.364-.14H4.515c-.456 0-.686.515-.37.82l2.104 2.035c.1.09.23.145.365.145h12.87c.46 0 .686-.52.366-.825l-2.15-2.035Z"/>
    </g>
    <defs>
        <linearGradient id="sol-token-path-fill" x1="4" x2="20.384" y1="15.841" y2="15.192" gradientUnits="userSpaceOnUse">
            <stop stop-color="#599DB0"/>
            <stop offset="1" stop-color="#47F8C3"/>
        </linearGradient>
    </defs>
</svg>
