<svg xmlns="http://www.w3.org/2000/svg" width="24" height="24" fill="none" viewBox="0 0 24 24">
    <mask id="arbitrum-token-mask" width="24" height="24" x="0" y="0" maskUnits="userSpaceOnUse" style="mask-type:luminance">
        <path fill="#fff" d="M0 0h24v24H0V0Z"/>
    </mask>
    <g mask="url(#arbitrum-token-mask)">
        <path fill="#213147" d="M24 0H0v24h24V0Z"/>
        <path fill="#fff" d="m13.203 13.216-.787 2.123a.27.27 0 0 0 0 .184l1.354 3.654 1.565-.89-1.879-5.071c-.042-.117-.21-.117-.253 0Zm1.577-3.573a.135.135 0 0 0-.253 0l-.787 2.123a.27.27 0 0 0 0 .184l2.217 5.985 1.565-.89-2.742-7.402Z"/>
        <path fill="#fff" d="M11.999 4.991a.24.24 0 0 1 .11.03l5.97 3.393a.22.22 0 0 1 .112.19v6.787a.22.22 0 0 1-.112.19l-5.97 3.395a.2.2 0 0 1-.11.029.239.239 0 0 1-.113-.03l-5.968-3.39a.22.22 0 0 1-.112-.19v-6.79a.22.22 0 0 1 .112-.19l5.969-3.393a.23.23 0 0 1 .11-.03m0-.991c-.212 0-.425.054-.615.163L5.416 7.556a1.21 1.21 0 0 0-.616 1.05v6.787c0 .433.234.834.616 1.05l5.968 3.394a1.25 1.25 0 0 0 1.232 0l5.968-3.394a1.21 1.21 0 0 0 .616-1.05V8.606a1.21 1.21 0 0 0-.616-1.05l-5.97-3.393a1.24 1.24 0 0 0-.616-.162Z"/>
        <path fill="#fff" d="m8.052 17.942.55-1.482 1.105.905-1.034.93-.62-.353Zm3.445-9.823H9.984a.27.27 0 0 0-.254.175l-3.243 8.757 1.565.89L11.623 8.3a.132.132 0 0 0-.127-.179"/>
        <path fill="#fff" d="M14.144 8.12H12.63a.27.27 0 0 0-.253.174l-3.704 10 1.565.89L14.27 8.298a.133.133 0 0 0-.127-.179Z"/>
    </g>
</svg>
