<svg xmlns="http://www.w3.org/2000/svg" width="24" height="24" fill="none" viewBox="0 0 24 24">
    <mask id="usdt-token-mask" width="24" height="24" x="0" y="0" maskUnits="userSpaceOnUse" style="mask-type:luminance">
        <path fill="#fff" d="M0 0h24v24H0V0Z"/>
    </mask>
    <g mask="url(#usdt-token-mask)">
        <path fill="#009393" d="M24 0H0v24h24V0Z"/>
        <path fill="#fff" d="m12 18.4-8-7.892L7.052 5.6h9.896L20 10.508 12 18.4Zm.8-7.2v-.976c1.44.072 2.784.352 3.2.716-.484.424-2.216.732-4 .732-1.784 0-3.516-.308-4-.732.412-.364 1.76-.64 3.2-.72v.98h1.6ZM8 10.936v.588c.412.364 1.756.64 3.2.72V14.4h1.6v-2.16c1.44-.072 2.788-.352 3.2-.716v-1.172c-.412-.364-1.76-.644-3.2-.72V8.8h2.4V7.6H8.8v1.2h2.4v.832c-1.444.076-2.788.356-3.2.72v.584Z"/>
    </g>
</svg>
