<svg xmlns="http://www.w3.org/2000/svg" width="24" height="24" fill="none" viewBox="0 0 24 24">
    <mask id="avax-token-mask" width="24" height="24" x="0" y="0" maskUnits="userSpaceOnUse" style="mask-type:luminance">
        <path fill="#fff" d="M0 0h24v24H0V0Z"/>
    </mask>
    <g mask="url(#avax-token-mask)">
        <path fill="#E84142" d="M24 0H0v24h24V0Z"/>
        <path fill="#fff" d="M8.015 19h-2.69c-.565 0-.845 0-1.015-.105a.67.67 0 0 1-.31-.53c-.01-.2.13-.44.41-.925L11.05 5.9c.284-.49.43-.735.61-.825.19-.1.425-.1.62 0 .18.09.32.335.6.825l1.37 2.35.005.01a4.5 4.5 0 0 1 .53 1.075c.075.3.075.625 0 .93-.127.384-.305.75-.53 1.085l-3.49 6.08-.01.02c-.18.363-.409.7-.68 1a2.1 2.1 0 0 1-.825.475C8.965 19 8.65 19 8.015 19Zm6.794 0h3.85c.576 0 .86 0 1.03-.11.186-.12.3-.315.31-.53.01-.195-.125-.425-.394-.88l-.03-.05-1.93-3.25-.02-.04c-.27-.45-.41-.68-.585-.77a.67.67 0 0 0-.616 0c-.18.09-.32.33-.6.81l-1.93 3.255v.01c-.284.48-.425.72-.415.915a.68.68 0 0 0 .31.535c.165.105.45.105 1.02.105Z"/>
    </g>
</svg>
