<svg xmlns="http://www.w3.org/2000/svg" width="24" height="24" fill="none" viewBox="0 0 24 24">
    <mask id="uni-token-mask" width="24" height="24" x="0" y="0" maskUnits="userSpaceOnUse" style="mask-type:luminance">
        <path fill="#fff" d="M0 0h24v24H0V0Z"/>
    </mask>
    <g mask="url(#uni-token-mask)">
        <path fill="#FF0A6F" d="M24 0H0v24h24V0Z"/>
        <path fill="#fff" fill-rule="evenodd" d="m8.48 8.25.002.002c.155.13.269.228.342.295l.045.044.031.035c.154.202.096.383-.167.525a1.7 1.7 0 0 1-.598.159c-.17 0-.23-.062-.23-.062l-.034-.03c-.084-.068-.18-.147-.627-.898-.316-.465-.632-.93-.95-1.393a23.974 23.974 0 0 0-.36-.52c-.038-.033-.037-.032 1.238 2.133.164.359.093.537.057.627a.2.2 0 0 0-.016.054c0 .13-.038.199-.208.38-.283.299-.41.636-.5 1.334-.103.782-.39 1.334-1.19 2.28-.468.553-.544.654-.662.877-.149.28-.19.438-.206.792-.018.376.016.618.137.976.105.314.216.522.498.936.243.358.383.624.383.728 0 .082.017.083.394.002.903-.194 1.635-.534 2.048-.95.255-.259.315-.401.317-.755 0-.231-.008-.28-.074-.413-.107-.216-.302-.396-.732-.675-.564-.367-.805-.66-.87-1.065-.056-.333.007-.567.32-1.187.322-.642.402-.916.456-1.563.035-.418.084-.583.21-.715.132-.139.25-.185.578-.228.533-.069.872-.2 1.15-.443.242-.212.344-.416.36-.723l.01-.232-.134-.15C9.008 7.886 4.28 4 4.25 4c-.006 0 .155.191.358.426C6.42 6.513 7.812 7.686 8.48 8.25Zm-2.74 7.06a.4.4 0 0 0-.133-.543c-.175-.11-.447-.058-.447.085 0 .015.003.029.01.042l.007.011c.007.01.015.019.025.026l.022.015.02.01c.097.048.104.101.027.21-.077.11-.07.208.018.273.143.107.345.048.45-.13" clip-rule="evenodd"/>
        <path fill="#fff" d="M8.894 5.137c-.027-.008-.005-.013.052-.02.197-.03.662.01.982.082.75.17 1.43.6 2.156 1.37l.193.203.276-.042c1.163-.178 2.347-.037 3.337.397.272.12.702.357.755.418.018.02.05.145.07.28.073.461.037.816-.113 1.081a.992.992 0 0 0-.05.102l-.01.03c-.015.058-.005.104.03.18.043.1.165.172.285.172.245 0 .51-.378.633-.903l.05-.209.096.104c.53.57.945 1.346 1.016 1.9l.018.143-.088-.13a1.7 1.7 0 0 0-.504-.504c-.355-.223-.732-.299-1.726-.349-.899-.045-1.407-.117-1.91-.273-.86-.266-1.29-.62-2.31-1.888-.454-.564-.734-.876-1.012-1.127-.632-.57-1.254-.87-2.05-.987a2.004 2.004 0 0 1-.176-.03Z"/>
        <path fill="#fff" d="M16.85 6.425c.022-.378.076-.627.184-.855a.996.996 0 0 1 .09-.164.6.6 0 0 1-.042.148c-.078.22-.092.523-.037.874.07.446.108.51.605.992.232.226.504.51.602.633l.178.222-.178-.158c-.219-.195-.72-.574-.832-.628a.303.303 0 0 0-.065-.025h-.018c-.015.003-.028.014-.048.033-.042.04-.05.1-.057.383-.01.442-.073.726-.226 1.01-.083.153-.096.12-.02-.053.055-.13.061-.186.06-.614 0-.86-.108-1.067-.74-1.42a7.005 7.005 0 0 0-.584-.288 1.996 1.996 0 0 1-.286-.133c.018-.017.633.154.88.244.37.135.43.152.474.136.03-.01.045-.094.06-.337Zm-8.012-.66c-.06.663.215 1.551.66 2.13.342.45.875.798 1.27.832.256.022.333-.055.217-.216a4.113 4.113 0 0 1-.414-.717c-.06-.198-.112-.4-.158-.603-.185-.818-.366-1.136-.786-1.378a2.6 2.6 0 0 0-.67-.237l-.1-.017-.019.206Zm7.474 6.441c-2.072-.79-2.802-1.478-2.802-2.638 0-.17.006-.31.014-.31s.088.056.178.125c.42.32.89.456 2.193.637.766.106 1.198.192 1.595.317 1.265.398 2.048 1.205 2.234 2.306.054.32.022.92-.065 1.235-.07.25-.282.7-.338.716-.008.002-.014-.008-.02-.03a.494.494 0 0 1-.015-.099c-.02-.413-.24-.815-.61-1.116-.42-.343-.985-.615-2.364-1.143Zm-1.555-.087c.03.082.074.27.1.416.166.937-.352 1.695-1.36 1.988-.074.02-.15.037-.226.05l-.283.052-.186.032-.24.04c-.824.13-1.192.222-1.562.391-.262.12-.58.3-.56.317.003.004.015.003.035-.003a.997.997 0 0 0 .097-.027c.466-.155.985-.236 1.773-.275.114-.005.233-.012.345-.02l.15-.01.15-.01.067-.006.08-.008c.701-.084 1.188-.286 1.566-.652.21-.203.336-.393.437-.66.064-.17.073-.232.074-.533 0-.306-.008-.362-.077-.55a1.702 1.702 0 0 0-.334-.577l-.099-.104.053.15Z"/>
        <path fill="#fff" d="M15.806 14.135c-.275-.561-.338-1.103-.188-1.61.016-.053.042-.097.059-.097a.199.199 0 0 1 .063.026c.025.013.051.03.08.048.127.08.382.217 1.06.568.845.438 1.328.776 1.655 1.164.288.339.465.725.55 1.196.05.266.02.908-.051 1.177-.227.847-.756 1.512-1.51 1.9-.071.04-.145.074-.22.104-.003 0-.002-.007.002-.021l.01-.026c.015-.04.043-.1.077-.17.254-.502.282-.991.09-1.536-.117-.334-.356-.74-.84-1.428-.561-.8-.7-1.013-.837-1.295Zm-5.185 1.842c-.871.135-1.828.572-2.597 1.188l-.23.184.202.03c1.05.155 1.333.293 2.06 1.005.42.41.56.5.91.585.51.123 1.013-.104 1.186-.536.076-.193.067-.513-.022-.673-.21-.383-.824-.506-1.12-.226-.247.233-.175.585.132.645.07.014.069.01-.018-.026-.135-.058-.193-.138-.194-.265-.001-.298.358-.466.694-.323.244.105.342.242.342.483 0 .37-.332.65-.718.603a1.1 1.1 0 0 1-.596-.295c-.34-.365-.207-.942.269-1.164.362-.168.843-.127 1.217.105.428.267.61.51.98 1.31.12.26.275.554.345.652.35.497.769.74 1.275.74.26.004.518-.055.75-.173.197-.092.474-.27.455-.288a.8.8 0 0 0-.181.054c-.552.204-1.112.19-1.438-.037-.205-.142-.37-.426-.455-.78-.04-.2-.076-.402-.108-.603-.113-.685-.222-.992-.476-1.345-.26-.362-.758-.665-1.315-.8a4.302 4.302 0 0 0-1.35-.05"/>
        <path fill="#fff" fill-rule="evenodd" d="M9.4 10.687c.076-.264.32-.516.57-.588.158-.047.487-.018.641.057.3.145.517.474.47.711-.057.29-.553.522-1.122.526-.29.002-.399-.036-.51-.176-.068-.087-.094-.37-.048-.53m1.135-.428c.15.087.188.216.1.334-.06.081-.248.159-.385.159-.205 0-.43-.139-.43-.266 0-.255.43-.393.715-.227Z" clip-rule="evenodd"/>
    </g>
</svg>
