<svg xmlns="http://www.w3.org/2000/svg" width="24" height="24" fill="none" viewBox="0 0 24 24">
  <g clip-path="url(#baby-dodge-coin-token-mask)">
    <path fill="#fff" d="M0 0h24v24H0z"/>
    <path fill="#31201B" d="M9.814 20.567a3.032 3.032 0 0 1-.654-.33c-.067-.046-.15-.023-.229-.025-.33-.008-.66.023-.987-.02-.56-.074-.922-.402-1.122-.912-.138-.358-.252-.727-.273-1.116-.004-.084-.067-.1-.117-.134-.979-.647-1.479-1.55-1.429-2.733a2.827 2.827 0 0 1 .473-1.445c.07-.105.132-.216.286-.19.16.028.155.165.174.278.147.794.57 1.395 1.26 1.809.126.075.128.073.137-.076.025-.5.195-.945.51-1.336.112-.139.063-.393-.088-.473-1.504-.804-2.245-2.19-2.086-3.898.047-.49.13-.97.29-1.437a.557.557 0 0 0 .02-.321c-.316-1.281-.343-2.563.016-3.842.06-.22.14-.437.256-.634.303-.513.576-.605 1.11-.483.51.117.936.405 1.358.697.21.147.41.307.599.481.054.05.099.059.168.027.93-.4 1.9-.59 2.915-.542a6.48 6.48 0 0 1 2.231.53c.095.04.151.031.229-.036.477-.41.979-.783 1.563-1.035.237-.103.48-.175.743-.17a.694.694 0 0 1 .532.243c.309.342.443.767.54 1.202a7.625 7.625 0 0 1-.055 3.537.534.534 0 0 0 .006.308c.183.574.299 1.162.31 1.767.016.937-.192 1.806-.797 2.55-.36.443-.796.794-1.302 1.056-.135.072-.206.334-.105.452.498.58.586 1.262.508 1.987-.013.12.015.183.12.252.346.227.542.565.63.964.166.744-.023 1.43-.387 2.07-.218.384-.59.575-1.035.606-.32.023-.64.013-.962.01a.381.381 0 0 0-.252.08c-.19.146-.412.213-.643.25-.019.003-.036.007-.04.028h-.66c-.075-.027-.157-.019-.235-.038a.91.91 0 0 1-.321-.204.257.257 0 0 0-.197-.077h-1.48a.258.258 0 0 0-.188.065.84.84 0 0 1-.517.252h-.082c-.023-.023-.05-.01-.078-.015-.02.002-.044-.004-.06.015h-.164a.202.202 0 0 0-.164 0h-.11c-.018-.017-.035-.017-.054 0-.038.006-.076.006-.111.006Z"/>
    <path fill="#FEFEFE" d="M10.637 20.568c.21-.074.405-.175.559-.34.027-.03.069-.015.105-.015l1.55.002c.078 0 .138.015.191.082.08.103.2.155.315.212.01.042.093-.01.08.06l-2.8-.001Z"/>
    <path fill="#EEEDED" d="M13.44 20.568c-.018-.034-.07-.02-.08-.061.073.017.155.006.218.06h-.139Z"/>
    <path fill="#4B3C37" d="M10.089 20.568c.054-.042.11-.042.164 0h-.164Z"/>
    <path fill="#AAA3A1" d="M10.473 20.544c.03.002.065-.023.082.023h-.082c-.008-.006-.012-.01-.008-.017.002-.004.006-.006.008-.006Z"/>
    <path fill="#978F8C" d="M9.923 20.568c.019-.04.036-.034.055 0h-.055Z"/>
    <path fill="#8E8683" d="M10.473 20.544c0 .009 0 .015-.002.023h-.055c.01-.029.034-.029.057-.023Z"/>
    <path fill="#FDA524" d="M16.03 4.362c-.196.235-.419.45-.579.712-.096.158-.081.238.066.349 1.436 1.084 2.274 2.523 2.543 4.295.061.395.028.794.023 1.191 0 .03-.008.055-.031.074-.256.256-.557.43-.922.466-.733.072-1.338-.214-1.876-.684-.5-.437-.947-.929-1.462-1.349-.32-.26-.647-.517-1.056-.624-.696-.185-1.351-.099-1.956.309-.323.218-.607.485-.899.741-.414.366-.769.8-1.222 1.12-.297.208-.612.395-.98.443-.537.07-1.062.061-1.495-.34a.285.285 0 0 1-.078-.088c-.069-.242-.058-.488-.046-.733.044-.941.286-1.83.73-2.662a6.222 6.222 0 0 1 1.749-2.081c.29-.22.29-.271.078-.57-.177-.245-.414-.436-.584-.689.073-.042.132.005.193.032.252.116.466.288.672.47.107.095.218.183.326.274.102.088.203.1.327.046a6.41 6.41 0 0 1 1.061-.372 5.844 5.844 0 0 1 1.848-.179c.704.05 1.38.217 2.027.502.047.021.095.038.139.057.116.053.2.021.296-.06.29-.253.607-.47.918-.698.076-.055.145-.044.19.048Z"/>
    <path fill="#FDFEFD" d="M6.18 11.034c.111.07.214.16.334.214.514.241 1.04.204 1.556.008.542-.206.93-.62 1.336-1.008.416-.4.832-.798 1.298-1.139.794-.58 1.935-.588 2.724-.012.469.342.885.737 1.3 1.136.196.187.393.37.595.55.441.396.958.622 1.55.65.322.014.626-.06.893-.257.09-.069.179-.143.286-.189a1.483 1.483 0 0 1-.084.406 4.282 4.282 0 0 1-1.878 1.649c-.813.373-1.668.57-2.55.67-.582.065-1.166.1-1.752.08-1.059-.036-2.107-.15-3.115-.507-.678-.24-1.306-.565-1.821-1.067-.284-.275-.55-.577-.683-.966-.02-.06-.025-.126-.035-.187-.009-.042.014-.05.046-.031Z"/>
    <path fill="#DEDEDE" d="M6.18 11.033c-.055.061-.017.122 0 .18.073.249.246.436.397.635.475.624 1.12 1.01 1.831 1.292a7.892 7.892 0 0 0 2.008.504c.358.042.717.061 1.076.086.296.02.594.028.89.017.963-.034 1.916-.126 2.84-.418.601-.191 1.168-.441 1.679-.815.359-.26.642-.59.897-.95a.902.902 0 0 1 .168-.178c-.192.79-.662 1.387-1.317 1.844-.704.49-1.498.757-2.332.914-1.636.309-3.266.298-4.888-.092-.785-.19-1.525-.486-2.159-1a3.184 3.184 0 0 1-1.16-1.98c-.006-.032-.004-.064-.004-.095.026.018.049.037.074.056Z"/>
    <path fill="#FDA524" d="M10.96 18.128c.007.482.013.96-.004 1.441-.067.034-.134.017-.201 0-.124-.027-.248-.063-.374-.09-.252-.052-.5-.03-.744.05-.054.02-.109.05-.172.032-.015-.008-.021-.021-.021-.038.088-.109.067-.216-.002-.325-.345-.56-.582-1.17-.836-1.771a4.548 4.548 0 0 1-.343-1.792c0-.21.061-.416.09-.624.007-.046.028-.09.089-.084.111.034.216.08.317.137-.025.315.078.598.235.859.175.286.4.533.616.788.338.395.748.712 1.098 1.094.095.1.198.193.252.323Zm4.483-3.076c.082-.046.161-.095.254-.118.084-.025.092.044.1.09.06.3.103.597.082.91-.033.475-.13.932-.294 1.376-.235.634-.491 1.26-.846 1.84-.067.109-.11.23-.183.334-.168.014-.332-.038-.502-.034a2.13 2.13 0 0 0-.62.095c-.048.014-.094.035-.147.023-.048-.026-.06-.07-.065-.118-.031-.113.007-.229-.023-.342v-.074c.021-.031.007-.071.021-.105.01-.21.002-.42.004-.63 0-.015 0-.03-.002-.044.002-.032.007-.063.009-.092.094-.263.283-.456.487-.635.506-.439.968-.92 1.355-1.468.197-.28.315-.588.344-.928-.002-.034.005-.06.026-.08Z"/>
    <path fill="#DEDEDE" d="M10.089 15.453c.344.04.69.08 1.035.122.095.013.032.063.017.097-.185.411-.111.882.187 1.186.334.343.872.41 1.302.162.401-.231.58-.723.448-1.208-.021-.077-.103-.17-.057-.224.04-.047.155-.026.235-.036l.79-.097c.057.093-.015.158-.055.223-.105.17-.245.317-.346.491a5.381 5.381 0 0 0-.485 1.055c-.017.052-.03.105-.06.153-.014.025-.027.078-.016.088-.235-.033-.288.007-.294.265-.008.37-.004.741-.006 1.111 0 .046-.005.09-.007.137-.149.124-.334.136-.512.162a1.642 1.642 0 0 1-.78-.09c-.046-.018-.094-.037-.115-.09-.004-.409-.006-.82-.013-1.23-.004-.244-.006-.244-.252-.294-.073-.086-.09-.2-.128-.3a5.34 5.34 0 0 0-.762-1.39c-.065-.085-.143-.169-.126-.293Z"/>
    <path fill="#FDFEFD" d="M10.089 15.452c.13.3.37.53.523.815.201.374.386.754.493 1.166-.109.078-.145.187-.145.317-.002.126.026.252.003.378-.607-.689-1.343-1.256-1.88-2.01a1.994 1.994 0 0 1-.364-.905c-.006-.049-.048-.122.042-.15.408.154.83.252 1.25.362.027.008.053.019.078.027Zm2.993 2.013c-.002-.03-.067-.019-.025-.09.095-.16.126-.349.202-.521.174-.393.367-.773.643-1.107.067-.084.138-.172.142-.29.23-.059.458-.113.685-.178.24-.07.477-.15.714-.227.01.372-.124.7-.327 1a7.104 7.104 0 0 1-1.084 1.233c-.294.266-.597.527-.803.873-.075-.17-.025-.35-.042-.525-.008-.078-.02-.143-.105-.168Z"/>
    <path fill="#F08102" d="M14.565 19.47c-.03-.11.048-.183.095-.261a9.657 9.657 0 0 0 1.07-2.525c.14-.536.173-1.086.04-1.634-.01-.044-.006-.107-.075-.118.034-.02.067-.046.103-.065.361-.185.296-.231.473.166.21.473.184.968.096 1.468-.122.683-.399 1.309-.68 1.935-.204.451-.435.886-.75 1.27-.074-.004-.107-.077-.172-.098-.07-.04-.156-.061-.2-.139Zm-6.121-4.543c-.03.017-.052.038-.056.074-.038.355-.116.704-.065 1.071.063.466.14.928.327 1.363.267.62.517 1.25.87 1.828.07.113.054.197-.063.26-.12.114-.24.055-.36.002a1.904 1.904 0 0 1-.262-.382c-.405-.758-.78-1.531-.985-2.372-.13-.529-.193-1.062-.013-1.596.038-.113.09-.218.141-.328.046-.102.11-.138.212-.073.082.053.168.103.254.153Zm6.944 4.874c.45-.662.76-1.363 1.04-2.08.084-.216.151-.44.225-.661.014-.042.006-.1.06-.113.061-.015.104.025.141.069.223.254.332.556.353.888.034.509-.128.975-.342 1.424-.14.294-.403.429-.716.467-.246.03-.492.01-.76.006ZM8.732 19.8c-.315 0-.624.043-.926-.054a.812.812 0 0 1-.515-.424c-.21-.446-.363-.908-.338-1.412.015-.313.122-.588.307-.836a.454.454 0 0 1 .075-.08c.105-.084.139-.075.175.053.216.775.55 1.5.924 2.21.094.178.246.325.298.544Z"/>
    <path fill="#C74F02" d="M17.53 7.023c-.312-.475-.648-.928-1.06-1.323-.172-.164-.353-.32-.533-.473-.049-.042-.061-.07-.017-.122.361-.436.766-.819 1.254-1.113.176.38.275.782.34 1.193.082.53.099 1.063.086 1.597-.002.084-.002.174-.07.241ZM7.014 4.02a4.15 4.15 0 0 1 1.193 1.054c.056.073.065.115-.02.185a9.638 9.638 0 0 0-1.34 1.405c-.041.008-.054.053-.088.071-.02.024-.037.053-.063.072-.05.036-.084.02-.1-.038a.245.245 0 0 1-.009-.067c.007-.542-.033-1.086.074-1.624.073-.367.17-.729.353-1.058Z"/>
    <path fill="#E8C587" d="M16.03 4.362c-.074-.056-.129-.056-.213.01-.317.253-.664.47-.96.749-.05.048-.11.035-.166.012-.229-.088-.458-.183-.689-.265a5.585 5.585 0 0 0-2.426-.308c-.63.056-1.258.185-1.832.47-.279.139-.476.116-.701-.103-.24-.235-.498-.46-.807-.605-.065-.031-.136-.052-.203-.077l-.691-.52c.008-.069.054-.037.09-.033.296.082.548.246.802.41.338.22.651.472.948.745.113.103.218.11.348.047 1.328-.633 2.704-.738 4.12-.372.331.086.653.208.961.361.145.072.26.061.387-.05.412-.366.842-.706 1.327-.969.158-.084.32-.16.496-.2.031-.012.059-.02.057.03a6.716 6.716 0 0 0-.849.668Z"/>
    <path fill="#F08102" d="M5.506 14.795c.014-.063.025-.126.044-.185.012-.04.01-.105.067-.105.046 0 .071.054.088.096.099.242.216.473.376.683.315.416.714.729 1.176.966.055.03.116.044.118.13.002.085-.034.12-.099.158-.189.11-.336.265-.451.45-.021.033-.026.082-.076.09-.179-.052-.305-.183-.43-.305a2.54 2.54 0 0 1-.713-1.17c-.048-.23-.111-.46-.107-.699-.002-.038.013-.073.007-.11Z"/>
    <path fill="#DF6D03" d="M7.013 4.02c.017.04.024.075-.002.115-.2.332-.262.704-.33 1.078-.094.527-.037 1.056-.056 1.596.082-.017.107-.095.168-.12.015.017.017.034 0 .05l-.504.92a1.428 1.428 0 0 1-.086-.422c-.084-.955-.074-1.905.21-2.835.05-.162.12-.315.189-.47.048-.108.105-.12.2-.06.07.049.148.087.211.147ZM17.53 7.023c.078-.943.015-1.871-.291-2.774-.028-.084-.099-.16-.065-.259.01-.008.02-.019.031-.025.282-.18.298-.178.429.137.195.472.298.968.34 1.476.036.429.057.857.025 1.288a4.25 4.25 0 0 1-.13.785 57.794 57.794 0 0 1-.338-.628Z"/>
    <path fill="#C74F02" d="M11.41 14.972c0 .032-.004.065 0 .097.013.092-.027.115-.115.115-.328.005-.645-.069-.964-.12a6.882 6.882 0 0 1-1.628-.47c-.101-.042-.198-.097-.292-.15-.038-.02-.086-.039-.084-.098.002-.063-.017-.153.016-.185.045-.04.097.04.148.066.092.05.186.094.294.104a.918.918 0 0 1 .239.05c.39.152.802.215 1.212.274.338.048.68.074 1.023.088.134.006.162.057.15.17a.26.26 0 0 0 .001.06c-.002 0-.002 0 0 0Z"/>
    <path fill="#F08102" d="M11.368 18.96c.414.189.836.193 1.264.06l.143-.043c-.008.254.07.508-.019.762-.016.044-.016.07-.065.07h-1.26c-.059 0-.082-.021-.08-.082.006-.257.013-.513.017-.767Z"/>
    <path fill="#F2E156" d="M11.895 16.742c-.235-.059-.443-.323-.46-.584a.635.635 0 0 1 .422-.624c.271-.094.563-.019.715.187a2.085 2.085 0 0 0-.032.326c-.002.34-.31.668-.645.695Z"/>
    <path fill="#C74F02" d="M14.54 14.55c.36-.08.718-.177 1.064-.307.03-.01.061-.023.093-.028.052-.008.13-.063.153.013.023.074.044.17-.067.223a7.25 7.25 0 0 1-1.55.535c-.29.061-.58.122-.876.147-.126.017-.248.063-.376.061-.088-.002-.191.01-.237-.092-.03-.067.058-.231.142-.28.066-.037.137-.048.21-.06.303-.053.61-.064.912-.112.174-.031.353-.065.532-.1Z"/>
    <path fill="#DEDEDE" d="M5.642 15.614c.19.622.58 1.093 1.107 1.46-.049.158-.103.311-.145.47-.023.087-.05.089-.118.04a2.62 2.62 0 0 1-1.07-1.793c-.035-.25-.029-.5.032-.748.072.01.072.071.078.122.015.115.046.229.036.346-.006.055.019.097.08.103Z"/>
    <path fill="#FDFEFD" d="m14.565 19.468.218.114c-.04.092-.113.04-.162.023-.107-.036-.178-.01-.247.08-.1.13-.227.235-.35.355.066.048.163-.004.23.1-.269-.003-.515.015-.76-.012-.198-.082-.286-.244-.271-.5.027-.019-.015-.088.054-.08.242-.067.479-.142.733-.145.19-.002.372.026.555.066Zm-3.68.442c-.049.111-.118.198-.246.22-.139.013-.29.053-.412-.029-.189-.126-.363-.277-.472-.485-.049-.09-.015-.128.084-.147.325-.063.632.015.937.113.163.053.172.076.126.25-.007.026.002.055-.017.078Z"/>
    <path fill="#DEDEDD" d="M10.885 19.91c.012-.25.012-.25-.248-.336a1.744 1.744 0 0 0-.805-.08c-.075.01-.084.042-.052.099.128.218.313.38.523.512.099.061.225.007.338.023-.668.089-1.05.055-1.401-.418-.036-.071.019-.098.065-.117.048-.02.097-.044.151-.046a1.767 1.767 0 0 1 1.246-.032c.082.027.17.036.254.052a.647.647 0 0 1-.071.343Z"/>
    <path fill="#DEDEDE" d="M13.496 20.126h.712c-.065-.04-.132-.021-.197-.027-.021-.003-.049.004-.06-.023-.01-.028.011-.045.028-.057.168-.128.315-.28.443-.445.038-.05.082-.04.135-.026.075.021.147.072.233.034.067.023.109.075.151.126-.248.313-.563.48-.97.452-.162-.013-.322.025-.475-.034Z"/>
    <path fill="#FCFCFB" d="M11.895 16.742c.202-.067.38-.172.502-.355a.656.656 0 0 0 .114-.399c-.005-.09-.021-.193.063-.264a.64.64 0 0 1 .035.775c-.153.227-.43.321-.714.243Z"/>
    <path fill="#613F36" d="M14.54 14.55c-.237.117-.498.13-.754.163-.267.034-.534.053-.798.106-.147.029-.183.132-.219.247-.02.07.036.066.07.074.122.025.245.019.367.002.05-.006.099-.019.15-.01-.181.052-.353.142-.555.081-.111-.033-.145-.098-.128-.203l.002-.013c.042-.27.063-.302.346-.307a8.005 8.005 0 0 0 1.286-.136c.076-.013.155-.004.233-.004Z"/>
    <path fill="#DCDCDC" d="M12.074 15.084h-.028c-.218.006-.214.006-.21-.21.002-.089.021-.137.122-.127.072.009.145 0 .219.003.12.002.174.044.164.182-.009.118-.026.181-.16.154-.032-.009-.07-.002-.107-.002Z"/>
    <path fill="#FBF5EE" d="M5.642 15.614c-.006.027-.01.057-.05.03-.047-.032-.082-.06-.072-.13a.828.828 0 0 0-.073-.471c-.015-.059.01-.114.027-.168.017-.015.033-.015.046.004.021.25.074.492.122.735Z"/>
    <path fill="#F4A025" d="M9.456 19.549c-.065.063-.193.042-.216.161a.67.67 0 0 1-.143-.184c.12-.003.242.058.36-.003v.026Z"/>
    <path fill="#988F8D" d="M13.223 18.946c-.002.032.004.065-.03.086.015-.26-.023-.52.024-.781a.04.04 0 0 1 .01.017c.006.227.017.453-.004.678Z"/>
    <path fill="#DBBD93" d="M13.195 19.105c.06.108 0 .23.044.337-.016.025.007.058-.023.08-.054-.135-.031-.276-.02-.416Z"/>
    <path fill="#FAD8A5" d="M13.219 19.523c.008-.027-.005-.059.023-.08.012.036.025.07.035.105-.019.028-.035.055-.054.08-.002-.035-.002-.071-.005-.105Z"/>
    <path fill="#C6A774" d="M7.427 3.692c-.031.008-.069-.004-.09.033l-.076-.035c.024-.061.066-.034.106-.023a.9.9 0 0 1 .06.025Z"/>
    <path fill="#937955" d="M7.369 3.666c-.036.009-.078-.016-.105.024-.021-.013-.078-.021-.017-.049.033-.017.086-.008.122.025Z"/>
    <path fill="#D9B690" d="M5.522 14.88c-.015-.003-.032-.003-.046-.005-.009-.034.017-.055.03-.082a.088.088 0 0 1 .016.086Z"/>
    <path fill="#CB6105" d="M6.791 6.74v-.05c.013-.021.019-.061.057-.025-.015.03-.021.065-.057.075Z"/>
    <path fill="#9A7F59" d="M16.873 3.696c-.01-.025-.036-.023-.057-.03.03-.027.067-.04.095-.012.014.015-.013.036-.038.042Z"/>
    <path fill="#31201B" d="M15.395 9.582c-.216-.009-.39-.017-.557-.074-.485-.16-.649-.569-.41-1.023a.914.914 0 0 1 1.118-.422.895.895 0 0 1 .586 1.013c-.05.268-.223.439-.506.487-.09.015-.18.015-.231.019Zm-6.619-.004c-.084-.002-.185.006-.284-.02-.365-.09-.531-.39-.456-.829.08-.466.56-.796 1.03-.712.502.088.827.53.75 1.012-.03.183-.143.3-.297.391-.19.111-.399.158-.743.158Z"/>
    <path fill="#FDFEFD" d="M9.71 6.47c.4-.043.702.461.53.854a.362.362 0 0 1-.218.198c-.277.103-.555.107-.822-.038-.273-.147-.338-.456-.142-.698.166-.203.378-.33.653-.317Zm4.78 1.127c-.061-.006-.116-.01-.17-.019-.484-.08-.536-.493-.362-.823.193-.366.626-.353.941-.154.042.028.08.061.116.097.136.137.25.29.18.498-.067.204-.226.315-.428.365-.09.023-.19.026-.277.036Z"/>
    <path fill="#31201B" d="M11.024 9.873c-.009-.287.1-.468.367-.58a1.73 1.73 0 0 1 1.336-.016c.19.073.361.183.405.41a.624.624 0 0 1-.041.409c-.122.288-.34.479-.618.611-.032.015-.072.017-.093.055.042.073.147.075.181.157.35.225.588.185.845-.138.081-.105.147-.22.21-.338.06-.112.153-.124.256-.074.094.048.145.116.094.233-.126.303-.3.567-.59.733-.094.055-.136.126-.157.235-.076.406-.24.77-.572 1.034a.9.9 0 0 1-1.182-.019c-.332-.281-.488-.655-.567-1.07a.254.254 0 0 0-.124-.18 1.47 1.47 0 0 1-.576-.714c-.048-.126-.013-.212.097-.258.124-.053.2-.023.262.103.055.111.118.216.196.315.254.321.495.361.844.136.034-.082.132-.092.19-.166-.133-.067-.264-.13-.377-.22a1.133 1.133 0 0 1-.32-.387.594.594 0 0 1-.066-.27Z"/>
    <path fill="#DEDEDD" d="M12.561 10.922a1.211 1.211 0 0 1-.268-.173c.489-.197.833-.497.84-1.062.149.346.019.804-.284 1.037-.092.072-.21.105-.288.198Z"/>
    <path fill="#DDD" d="M11.024 9.874c.111.447.416.712.844.872-.088.077-.176.13-.269.176-.094-.07-.184-.14-.281-.206-.191-.13-.288-.321-.342-.535-.028-.105.027-.204.048-.307Z"/>
    <path fill="#E5BA7E" d="m13.222 18.946.007-.678c.03.226.035.453-.007.678Z"/>
    <path fill="#FCFDFC" d="M15.4 8.589c.001.16-.116.296-.261.3-.177.004-.3-.113-.305-.294a.3.3 0 0 1 .286-.296c.132-.004.275.145.28.29ZM9.32 8.6c0 .18-.107.28-.29.28-.172-.002-.267-.105-.265-.294a.27.27 0 0 1 .263-.277c.172-.004.292.113.292.292Z"/>
    <path fill="#614037" d="M12.087 9.937c-.17-.025-.347-.02-.504-.11-.076-.041-.145-.098-.143-.186.002-.093.073-.156.157-.19a1.29 1.29 0 0 1 .958 0c.082.032.158.085.168.181.008.105-.075.15-.149.193-.15.093-.32.095-.487.112Z"/>
    <path fill="#F28B7E" d="M12.59 12.055c-.014.023-.028.046-.045.067-.34.403-.675.386-.992-.044.023-.05.072-.07.12-.084a1.51 1.51 0 0 1 .878.027c.017.004.03.019.04.034Z"/>
    <path fill="#DDDBDB" d="M12.59 12.054c-.287-.059-.577-.117-.871-.035-.057.017-.111.037-.166.056-.097-.126-.097-.128.05-.174.313-.099.626-.099.944-.006.113.035.132.077.044.16Z"/>
  </g>
  <defs>
    <clipPath id="baby-dodge-coin-token-mask">
      <path fill="#fff" d="M0 0h24v24H0z"/>
    </clipPath>
  </defs>
</svg>
