<svg xmlns="http://www.w3.org/2000/svg" width="24" height="24" fill="none" viewBox="0 0 24 24">
    <mask id="optimism-token-mask" width="24" height="24" x="0" y="0" maskUnits="userSpaceOnUse" style="mask-type:luminance">
        <path fill="#fff" d="M0 0h24v24H0V0Z"/>
    </mask>
    <g mask="url(#optimism-token-mask)">
        <path fill="#FE0420" d="M24 0H0v24h24V0Z"/>
        <path fill="#fff" fill-rule="evenodd" d="M4.859 15.378c.58.415 1.324.622 2.233.622 1.098 0 1.976-.248 2.633-.745.656-.503 1.118-1.262 1.385-2.277.16-.622.298-1.263.413-1.923a3.89 3.89 0 0 0 .056-.59c0-.517-.133-.961-.4-1.331a2.4 2.4 0 0 0-1.1-.845A4.07 4.07 0 0 0 8.5 8c-2.159 0-3.498 1.018-4.018 3.055-.159.637-.3 1.278-.423 1.923a4 4 0 0 0-.058.6c0 .777.285 1.377.858 1.8Zm4.134-2.467c-.22.851-.824 1.405-1.74 1.405-.907 0-1.216-.613-1.053-1.405.137-.719.275-1.326.412-1.822.236-.919.792-1.405 1.74-1.405.903 0 1.198.605 1.042 1.405a26 26 0 0 1-.401 1.822Zm3.469 3.01a.24.24 0 0 0 .19.078h1.514a.33.33 0 0 0 .212-.079.33.33 0 0 0 .122-.206l.479-2.24h1.54c.973 0 1.733-.471 2.29-.891.565-.42.94-1.068 1.125-1.943a2.72 2.72 0 0 0 .067-.595c0-.661-.252-1.168-.756-1.52-.5-.35-1.161-.525-1.985-.525h-2.962a.33.33 0 0 0-.212.08.33.33 0 0 0-.122.206l-1.538 7.428a.28.28 0 0 0 .034.206m5.413-5.304c-.14.612-.673 1.172-1.3 1.172h-1.28l.441-2.105h1.336c.455 0 .835.09.835.59 0 .099-.01.213-.032.343Z" clip-rule="evenodd"/>
    </g>
</svg>
