<svg xmlns="http://www.w3.org/2000/svg" width="24" height="24" fill="none" viewBox="0 0 24 24">
    <mask id="pepe-token-mask" width="24" height="24" x="0" y="0" maskUnits="userSpaceOnUse" style="mask-type:luminance">
        <path fill="#fff" d="M0 0h24v24H0V0Z"/>
    </mask>
    <g mask="url(#pepe-token-mask)">
        <path fill="#4F9843" d="M24 0H0v24h24V0Z"/>
        <path fill="#fff" d="m9.75 8.893.894.485.113.072c.31.19 1.035.63 1.717.63.626 0 1.435-.15 1.76-.227-.071-.253-.283-.81-.58-1.013a1.6 1.6 0 0 0-.88-.291l-1.984.034a3 3 0 0 0-1.04.31Zm5 .756c.034-.175.19-.557.542-.693.447-.175.842-.29 1.336-.247.366.042.723.149 1.054.315.019.024.164.228.174.354.014.13-.165.523-.94.683a3.96 3.96 0 0 1-1.836-.126.85.85 0 0 1-.33-.29v.004Z"/>
        <path fill="#206814" d="m11.826 12.614-2.234-.558c-.386-.096-.852-.14-.998.083-.117.175.31.582.537.766l1.68.857c.592.271 2.295.814 4.393.814 2.103 0 2.682-.668 2.705-1.008l-.066-.367v-.292c.132-.17.42-.567.494-.853.076-.28-.14-.445-.263-.493l-.104.353-.442.697c-.136.069-.47.234-.762.345-.357.146-1.129.063-1.218.063a86.867 86.867 0 0 1-1.788-.117 28.018 28.018 0 0 1-1.929-.29h-.005Z"/>
        <path fill="#000" d="M8.48 4.974c-.295.352-.57.72-.823 1.105a36.875 36.875 0 0 0-1.53 2.433 14.06 14.06 0 0 0-1.966 7.458c0 .78.203 1.387.527 1.852.323.448.755.806 1.256 1.037.89.39 1.848.582 2.814.567.625 0 1.082-.024 1.58-.049h.127c.55-.029 1.162-.053 2.094-.053.73 0 1.143-.228 1.374-.5.23-.275.282-.6.254-.813a.1.1 0 0 1 .017-.06.08.08 0 0 1 .113-.015.078.078 0 0 1 .03.055 1.3 1.3 0 0 1-.292.94c-.268.315-.734.558-1.496.558-.927 0-1.538.024-2.084.048l-.132.01c-.494.02-.96.044-1.585.044-.682 0-1.868-.088-2.88-.582a3.34 3.34 0 0 1-1.32-1.09A3.35 3.35 0 0 1 4 15.97c0-3.213.8-5.48 1.99-7.54a36.8 36.8 0 0 1 1.534-2.443c.254-.386.53-.756.828-1.11l.01-.014.084-.116a1.6 1.6 0 0 1 .33-.325 2.5 2.5 0 0 1 1.552-.417c.574 0 1.007.097 1.331.267.283.145.48.353.617.596a2.15 2.15 0 0 1 1.505-.64c.49 0 .88.034 1.2.175.32.145.555.402.738.82l.47 1.084c.33.194.59.402.74.553.235.252.484.571.602.731.211.097.395.243.522.46a.397.397 0 0 1 .047.112l.023.165c.01.145 0 .33-.05.523.041.097.083.233.097.398a1 1 0 0 1-.117.581c-.13.22-.28.427-.447.62.1.102.221.248.32.413.113.18.207.387.22.596a.55.55 0 0 1 .255.358c.033.146 0 .315-.056.466-.117.282-.283.54-.49.76a1 1 0 0 1 .137.456.799.799 0 0 1-.264.576 1.99 1.99 0 0 1-.903.437c-.433.106-1.01.17-1.778.17-3.585 0-5.72-1.527-6.187-1.857l-.07-.048a.799.799 0 0 1-.198-.223.6.6 0 0 1-.085-.29.36.36 0 0 1 .108-.287.53.53 0 0 1 .363-.116c.31 0 .753.121 1.223.261l.25.073c.41.126.827.252 1.223.335.955.194 3.264.421 4.53.421.616 0 1.016-.194 1.28-.455.263-.262.4-.582.48-.848a.496.496 0 0 0 .023-.14c0-.175-.08-.374-.193-.558a2.304 2.304 0 0 0-.296-.373l-.137.145c-.08.087-.3.271-.569.32a.08.08 0 0 1-.06-.014.085.085 0 0 1 .003-.139.08.08 0 0 1 .03-.012.9.9 0 0 0 .48-.27c.254-.261.48-.55.671-.859a.8.8 0 0 0 .094-.485 1.099 1.099 0 0 0-.094-.363c-.127-.18-.574-.562-1.33-.562a1.57 1.57 0 0 0-1.1.436c.256-.11.533-.164.812-.16.607 0 1.012.111 1.27.262.254.145.377.34.39.484a.4.4 0 0 1-.093.267.999.999 0 0 1-.283.262c-.254.16-.644.29-1.17.29-.519 0-.956-.034-1.257-.126a.75.75 0 0 1-.353-.194.35.35 0 0 1-.07-.349v-.004c.046-.14.17-.335.371-.504l.005-.015c.157-.255.376-.464.634-.607.26-.143.55-.214.843-.207.678 0 1.14.286 1.36.51a1.48 1.48 0 0 0 .018-.316.9.9 0 0 0-.362-.223 2.9 2.9 0 0 0-1.016-.16c-.574 0-.936.136-1.153.276-.114.07-.214.16-.3.267l-.01.01-.024.024a.079.079 0 0 1-.059.017.08.08 0 0 1-.053-.032.085.085 0 0 1 .01-.11l.01-.016a.937.937 0 0 1 .08-.087c.055-.063.14-.146.262-.218a2.3 2.3 0 0 1 1.237-.296c.47 0 .823.073 1.073.17a1 1 0 0 1 .235.116.93.93 0 0 0-.39-.344.08.08 0 0 1-.07-.034 1.7 1.7 0 0 0-.603-.116 3.4 3.4 0 0 0-1.214.208.08.08 0 0 1-.096-.034.084.084 0 0 1 .003-.091.084.084 0 0 1 .036-.03c.408-.15.838-.223 1.27-.218.148.002.291.02.43.053a3.3 3.3 0 0 0-1.286-1.114 2.95 2.95 0 0 0-1.33-.359c-.4 0-.707.04-.932.092a2.001 2.001 0 0 0-.33.097c.046.062.089.127.127.194.18.276.348.538.47.785.137.271.222.533.18.775a.078.078 0 0 1-.034.054.08.08 0 0 1-.09.002.081.081 0 0 1-.023-.022.1.1 0 0 1-.014-.063c.034-.184-.028-.407-.16-.668-.117-.243-.282-.495-.46-.776l-.048-.068a1.987 1.987 0 0 0-.13-.184c-.368-.436-.923-.644-2.015-.644-1.11 0-1.646.712-1.792.92l-.028.034a.08.08 0 0 1-.113.01.084.084 0 0 1-.015-.116l.03-.034c.22-.31.51-.56.843-.73a2.25 2.25 0 0 1 1.075-.249c.466 0 .847.034 1.157.116a2 2 0 0 0-.155-.504 1.33 1.33 0 0 0-.602-.63 2.7 2.7 0 0 0-1.256-.242c-.753 0-1.19.184-1.458.383a1.4 1.4 0 0 0-.297.29l-.084.112-.009.014Zm4.037.63c.315.102.564.262.757.485.085-.048.221-.097.405-.136.235-.053.555-.097.964-.097.48 0 .936.146 1.317.33l-.386-.897a1.3 1.3 0 0 0-.658-.73 2.8 2.8 0 0 0-1.13-.166 2 2 0 0 0-1.43.63c.076.184.128.373.16.581m5.245 7.61a.698.698 0 0 1-.22.212c-.194.121-.5.223-.956.242a24 24 0 0 1-3.368-.09 15.325 15.325 0 0 1-2.108-.33 4.998 4.998 0 0 1-1.647-.66.079.079 0 0 1-.033-.054.1.1 0 0 1 .014-.063.074.074 0 0 1 .11-.019c.384.271.944.475 1.594.63.644.16 1.37.262 2.084.33 1.425.135 2.79.12 3.35.097.304 0 .605-.076.874-.223.165-.107.212-.214.217-.262v-.03l.023-.023c.174-.18.396-.47.504-.75.047-.142.07-.268.047-.375a.36.36 0 0 0-.118-.198l-.01.043c-.084.276-.235.63-.526.921-.38.35-.879.532-1.388.504a30.985 30.985 0 0 1-4.563-.43c-.4-.084-.828-.215-1.238-.336l-.244-.072c-.48-.146-.894-.252-1.176-.252-.142 0-.217.034-.26.072a.2.2 0 0 0-.056.155c0 .068.024.146.066.214a.5.5 0 0 0 .141.164l.07.05c.462.33 2.57 1.831 6.103 1.831.757 0 1.322-.068 1.74-.17.414-.102.678-.242.833-.397a.614.614 0 0 0 .141-.727v-.005Zm-2.88-3.66a.2.2 0 0 0 .04.19.6.6 0 0 0 .281.145c.273.087.696.116 1.21.116a2 2 0 0 0 1.086-.262.899.899 0 0 0 .24-.218c.047-.073.06-.12.06-.145-.008-.083-.08-.228-.31-.364a2.4 2.4 0 0 0-1.19-.242c-.927 0-1.327.533-1.41.775l-.007.005Z"/>
        <path fill="#000" fill-rule="evenodd" d="M13.646 8.203c.493.444.9.982 1.194 1.585a.09.09 0 0 1-.037.11.08.08 0 0 1-.108-.038 5 5 0 0 0-1.152-1.531 3.02 3.02 0 0 0-2.136-.848c-1.082.044-1.694.267-2.023.5-.325.237-.357.479-.33.58l.02.054c.014.048.023.082.037.107v.01a3 3 0 0 1 1.034-.778 2.9 2.9 0 0 1 1.257-.255 2.9 2.9 0 0 1 1.92.81c.254.077.47.329.626.59.16.258.277.548.338.747a.3.3 0 0 1 .117.218c.011.121-.058.24-.207.359-.07.053-.15.13-.25.227-.38.374-1.002.98-2.29 1.333a.08.08 0 0 1-.062-.008.079.079 0 0 1-.037-.05.1.1 0 0 1 .008-.063.08.08 0 0 1 .049-.04 4.598 4.598 0 0 0 2.088-1.162 37.053 37.053 0 0 0-2.235-.111c-.376 0-.706-.16-.96-.36a2.399 2.399 0 0 1-.54-.595.084.084 0 0 1 .088-.127.08.08 0 0 1 .049.035c.09.145.263.368.503.552.236.19.532.33.86.33.692 0 1.864.077 2.4.12.083-.087.161-.158.235-.212.127-.097.146-.175.14-.213a.15.15 0 0 0-.04-.088 5.3 5.3 0 0 1-1.507.209c-.95 0-1.642-.451-1.98-.674-.264-.174-.813-.426-1.053-.533l-.17-.077.165-.078c.32-.166.665-.28 1.02-.34h2.39a2.7 2.7 0 0 0-2.912-.368 2.7 2.7 0 0 0-.691.514 3.708 3.708 0 0 1-.292.242.16.16 0 0 1-.084.015c-.076-.005-.11-.073-.127-.116a1.997 1.997 0 0 1-.043-.126c0-.02-.01-.034-.014-.05-.056-.193.028-.503.39-.765.363-.261 1.008-.484 2.107-.533a3.18 3.18 0 0 1 2.245.892Zm-.377.46c.197.059.386.267.541.524.141.223.245.475.306.659a5.3 5.3 0 0 1-1.425.189c-.895 0-1.553-.431-1.892-.65a8.996 8.996 0 0 0-.907-.47c.256-.12.522-.204.8-.252h2.578Z" clip-rule="evenodd"/>
        <path fill="#000" d="m15.08 10.492.095-.13c.14.067.352.101.569.115.216.01.423 0 .545-.01a.079.079 0 0 1 .06.018.082.082 0 0 1 .03.055c0 .05-.03.088-.07.097a3.835 3.835 0 0 1-.9-.034l.862.911a.1.1 0 0 1 0 .122.08.08 0 0 1-.09.02.099.099 0 0 1-.028-.02l-1.073-1.144Zm-6.86 1.623a.1.1 0 0 1-.034.054.08.08 0 0 1-.09 0 .09.09 0 0 1-.034-.086l.027-.074.062-.107c.056-.082.14-.18.258-.266.236-.18.607-.306 1.148-.18a.08.08 0 0 1 .047.038.084.084 0 0 1-.026.11c-.018.012-.038.016-.058.012-.5-.116-.82.005-1.016.155a.96.96 0 0 0-.283.344Zm1.022-1.192c.038.02.052.073.033.112a.24.24 0 0 1-.155.12.598.598 0 0 1-.188.025h-.193c-.057 0-.094.01-.118.015a.079.079 0 0 1-.061-.008.08.08 0 0 1-.038-.05.1.1 0 0 1 .008-.064.08.08 0 0 1 .049-.038c.047-.015.103-.015.16-.015h.183a1 1 0 0 0 .15-.024c.048-.015.057-.03.062-.034a.08.08 0 0 1 .108-.039Z"/>
        <path fill="#000" fill-rule="evenodd" d="M15.071 15.978c.066.063.132.145.18.228a.4.4 0 0 1-.067.47.078.078 0 0 1-.134-.056c0-.021.007-.04.021-.056a.199.199 0 0 0 .066-.14.26.26 0 0 0-.033-.14.797.797 0 0 0-.188-.22.67.67 0 0 0-.343.466v.015a.3.3 0 0 0 0 .174c.023.049.065.102.174.116a.9.9 0 0 0 .546-.087l.823-.61h.682l.047.615.588-.504a.1.1 0 0 1 .027-.015.08.08 0 0 1 .06.005c.01.005.02.012.026.02a.085.085 0 0 1-.01.116l-1.778 1.537c.009.08.03.158.061.232a.55.55 0 0 0 .226.267c.216.125.485.096.612.062l.767-.998a.08.08 0 0 1 .053-.031.081.081 0 0 1 .06.017.086.086 0 0 1 .01.116l-.777 1.013a.32.32 0 0 0-.02.228c.03.063.1.145.311.155.226.014.372 0 .461-.025l.085-.038.014-.015v-.005l.725-.925a.102.102 0 0 1 .023-.022.08.08 0 0 1 .09.007c.037.03.042.082.014.116l-.706.907a.33.33 0 0 0 0 .194.16.16 0 0 0 .066.072c.027.024.076.038.146.044a.4.4 0 0 0 .226-.087c.102-.07.195-.152.277-.243.184-.19.353-.421.452-.581.023-.034.075-.05.113-.02a.08.08 0 0 1 .035.082.08.08 0 0 1-.012.03c-.14.217-.298.421-.475.61a1.997 1.997 0 0 1-.306.262.52.52 0 0 1-.315.112.44.44 0 0 1-.23-.068.32.32 0 0 1-.123-.155.4.4 0 0 1-.023-.126l-.033.01a1.7 1.7 0 0 1-.513.033c-.25-.02-.39-.116-.447-.261a.43.43 0 0 1-.024-.228.92.92 0 0 1-.61-.097.7.7 0 0 1-.297-.344.601.601 0 0 1-.048-.136.26.26 0 0 1-.226.02.22.22 0 0 1-.13-.107.3.3 0 0 1-.029-.15.6.6 0 0 1 .028-.155.6.6 0 0 1-.188-.194.33.33 0 0 1-.038-.204c0-.063.024-.136.047-.194l.047-.111a1 1 0 0 1-.414.02c-.164-.025-.259-.112-.296-.224a.471.471 0 0 1-.02-.252.824.824 0 0 0-.07-.145.599.599 0 0 0-.136-.17.3.3 0 0 0-.245-.058c-.089.02-.188.087-.273.257a.371.371 0 0 0-.037.218.61.61 0 0 0 .084.218c.073.116.155.224.245.325l.184.223c.14.189.197.426.211.64.014.193-.004.377-.033.499.236.436 1.115 1.303 2.903 1.303.86 0 1.468-.135 1.877-.305.4-.165.612-.368.692-.504v-.04a2.396 2.396 0 0 0-.165-.411 5.993 5.993 0 0 0-.65-1.008c-.154-.213-.324-.455-.507-.683a3.2 3.2 0 0 0-.8-.766 1.96 1.96 0 0 1-.626-.61 1.17 1.17 0 0 0-.592-.456.5.5 0 0 0-.386.049c-.132.063-.264.17-.395.29-.085.078-.16.16-.236.238l-.14.145a1.997 1.997 0 0 1-.24.209v-.005Zm4.888 2.94a2.598 2.598 0 0 0-.174-.425 5.99 5.99 0 0 0-.494-.785l-.164-.237c-.156-.214-.33-.461-.518-.694a3.3 3.3 0 0 0-.847-.804 1.801 1.801 0 0 1-.578-.567 1.32 1.32 0 0 0-.668-.514.66.66 0 0 0-.499.053 1.8 1.8 0 0 0-.437.325l-.25.242-.132.136a1.198 1.198 0 0 1-.306.247.88.88 0 0 0-.414.402.8.8 0 0 0-.178-.217.46.46 0 0 0-.377-.093c-.14.034-.282.14-.38.344a.55.55 0 0 0-.057.316c.02.102.056.2.108.29.078.121.166.234.264.34l.174.218a.999.999 0 0 1 .178.547c.014.194-.01.378-.037.485l-.005.024.014.03c.235.489 1.18 1.419 3.058 1.419.875 0 1.506-.136 1.934-.315.313-.106.587-.31.78-.586l.038-.073a.08.08 0 0 0 .004-.06.08.08 0 0 0-.037-.047Zm-4.563-2.034c-.065.08-.117.17-.155.266a.4.4 0 0 0-.038.15c-.005.049 0 .078.014.098a.4.4 0 0 0 .132.145l1.18-1.24h-.36l-.778.58h.005Zm1.265-.475-1.213 1.27a.402.402 0 0 0-.048.165c0 .029 0 .048.01.063.005.014.014.024.038.029.06.019.094.005.108-.01a.198.198 0 0 0 .047-.068v-.03l1.1-.944-.037-.475h-.005Z" clip-rule="evenodd"/>
        <path fill="#000" d="M13.194 7.534a2.9 2.9 0 0 0-.85.082.08.08 0 0 1-.058-.01.084.084 0 0 1-.027-.11.08.08 0 0 1 .046-.039 2.86 2.86 0 0 1 .9-.088c.338.024.695.121.902.388.199.257.31.562.368.838.06.277.066.533.056.68a.08.08 0 0 1-.027.056.08.08 0 0 1-.128-.035.105.105 0 0 1-.005-.032c.01-.136 0-.368-.052-.63a1.899 1.899 0 0 0-.334-.77c-.17-.214-.465-.306-.79-.33"/>
        <path fill="#000" fill-rule="evenodd" d="M11.03 8.702c-.08.155-.281.528-.262.732.212.13.734.426 1.134.557.503.165.875-.305.875-.707a1 1 0 0 0-.226-.645h-1.487a.808.808 0 0 1-.033.063Zm.18.514a.2.2 0 0 0 .145-.062.214.214 0 0 0-.066-.344.2.2 0 0 0-.08-.016.21.21 0 0 0-.201.214c0 .116.094.208.202.208m.14.368a.14.14 0 0 0 .138-.117.15.15 0 0 0-.008-.084.15.15 0 0 0-.076-.078.14.14 0 0 0-.173.053.14.14 0 0 0-.022.08c0 .083.066.146.14.146Zm1.082-.315c0 .175-.131.315-.296.315a.3.3 0 0 1-.281-.195.298.298 0 0 1-.02-.12.3.3 0 1 1 .602 0h-.005Zm2.79.742c-.028-.272-.033-.873.179-1.096.216-.223.955-.256 1.298-.242.104.097.297.412.268.824-.028.407-.296.586-.428.63-.282.014-.945.014-1.317-.116Zm.4-.582a.21.21 0 0 0 .207-.213.21.21 0 0 0-.207-.213c-.108 0-.202.097-.202.213 0 .116.094.208.202.208v.005Zm.14.364a.14.14 0 0 0 .1-.043.15.15 0 0 0 0-.206.14.14 0 0 0-.2 0 .15.15 0 0 0-.04.103c0 .083.066.146.14.146Zm1.088-.315a.31.31 0 0 1-.301.315.3.3 0 0 1-.215-.093.299.299 0 0 1-.086-.222c0-.17.136-.31.3-.31.165 0 .302.14.302.31Z" clip-rule="evenodd"/>
        <path fill="#000" d="M17.358 14.315a.9.9 0 0 1-.073.552.86.86 0 0 1-.383.392l-.094-.218c.122-.058.376-.276.315-.688l.235-.038Z"/>
    </g>
</svg>
