<svg xmlns="http://www.w3.org/2000/svg" width="24" height="24" fill="none" viewBox="0 0 24 24">
    <g clip-path="url(#bnb-token-clipPath)">
        <mask id="bnb-token-mask" width="24" height="24" x="0" y="0" maskUnits="userSpaceOnUse" style="mask-type:luminance">
            <path fill="#fff" d="M0 0h24v24H0V0Z"/>
        </mask>
        <g mask="url(#bnb-token-mask)">
            <path fill="#000" d="M24 0H0v24h24V0Z"/>
            <path fill="#F0B90B" d="M7.454 6.449 12 4l4.547 2.449-1.667.907L12 5.809 9.125 7.356l-1.671-.907Zm9.093 3.093-1.667-.906L12 10.182 9.125 8.636l-1.671.906v1.81l2.87 1.546v3.089l1.676.906 1.672-.906v-3.09l2.875-1.546V9.542Zm0 4.903V12.63l-1.667.907v1.809l1.667-.901Zm1.19.64-2.876 1.542v1.813l4.547-2.453v-4.898l-1.672.902v3.094Zm-1.672-7.09 1.667.907v1.81l1.676-.903V7.996l-1.672-.907L16.065 8v-.005Zm-5.74 9.29v1.808L12 20l1.672-.907V17.29l-1.672.9-1.671-.907-.004.002ZM7.453 14.44l1.667.907v-1.81l-1.667-.906v1.813-.004Zm2.87-6.444L12 8.902l1.672-.906L12 7.089 10.33 8l-.007-.004Zm-4.06.906 1.67-.906-1.665-.907L4.593 8v1.813l1.67.903V8.902Zm0 3.09-1.67-.903v4.898l4.546 2.453v-1.818l-2.87-1.542v-3.093l-.005.005Z"/>
        </g>
    </g>
    <defs>
        <clipPath id="bnb-token-clipPath">
            <path fill="#fff" d="M0 0h24v24H0z"/>
        </clipPath>
    </defs>
</svg>
