<svg xmlns="http://www.w3.org/2000/svg" width="24" height="24" fill="none" viewBox="0 0 24 24">
  <path fill="#F0B90B" d="M7.09 5.755 12 3l4.91 2.755-1.8 1.02L12 5.035l-3.105 1.74-1.805-1.02Zm9.82 3.48-1.8-1.02L12 9.955l-3.105-1.74-1.805 1.02v2.035l3.1 1.74v3.475l1.81 1.02 1.805-1.02V13.01l3.105-1.74V9.235Zm0 5.515v-2.04l-1.8 1.02v2.035l1.8-1.015Zm1.285.72-3.105 1.735v2.04l4.91-2.76v-5.51l-1.805 1.015v3.48ZM16.39 7.495l1.8 1.02v2.035L20 9.535v-2.04l-1.805-1.02L16.39 7.5v-.005Zm-6.2 10.45v2.035L12 21l1.805-1.02v-2.03L12 18.965l-1.805-1.02h-.005Zm-3.1-3.2 1.8 1.02V13.73l-1.8-1.02v2.04-.005Zm3.1-7.25L12 8.515l1.805-1.02L12 6.475 10.195 7.5l-.005-.005Zm-4.385 1.02 1.805-1.02-1.8-1.02L4 7.5v2.04l1.805 1.015v-2.04Zm0 3.475L4 10.975v5.51l4.91 2.76V17.2l-3.1-1.735v-3.48l-.005.005Z"/>
</svg>
