<svg xmlns="http://www.w3.org/2000/svg" width="24" height="24" fill="none" viewBox="0 0 24 24">
  <path fill="#8FFCF3" d="M12 3v6.651l5.625 2.516L12 3Z"/>
  <path fill="#CABCF8" d="m12 3-5.625 9.166L12 9.653V3Z"/>
  <path fill="#CBA7F5" d="M12 16.478V21l5.625-7.784L12 16.478Z"/>
  <path fill="#74A0F3" d="M12 21v-4.522l-5.625-3.262L12 21Z"/>
  <path fill="#CBA7F5" d="m12 15.43 5.625-3.263L12 9.652v5.778Z"/>
  <path fill="#74A0F3" d="M6.375 12.167 12 15.43V9.652l-5.625 2.515Z"/>
  <path fill="#202699" fill-rule="evenodd" d="m12 15.43-5.625-3.263L12 3l5.624 9.166L12 15.43Zm-5.252-3.528 5.161-8.41v6.114l-5.161 2.296Zm-.077.229 5.238-2.327v5.364l-5.238-3.037Zm5.418-2.327v5.364l5.234-3.037-5.234-2.327Zm0-.198 5.161 2.296-5.161-8.41v6.114Z" clip-rule="evenodd"/>
  <path fill="#202699" fill-rule="evenodd" d="m12 16.406-5.625-3.195L12 21l5.624-7.79L12 16.406Zm-4.995-2.633 4.904 2.79v4.005l-4.904-6.795Zm5.084 2.79v4.005l4.905-6.795-4.905 2.79Z" clip-rule="evenodd"/>
</svg>
