<svg xmlns="http://www.w3.org/2000/svg" width="24" height="24" fill="none" viewBox="0 0 24 24">
  <path fill="#FE0420" fill-rule="evenodd" d="M3.966 15.8c.653.467 1.49.7 2.512.7 1.236 0 2.223-.28 2.962-.838.739-.567 1.258-1.42 1.559-2.562.18-.7.335-1.421.464-2.163.042-.265.063-.486.064-.663 0-.583-.15-1.082-.451-1.499a2.7 2.7 0 0 0-1.237-.95C9.315 7.608 8.723 7.5 8.062 7.5c-2.43 0-3.936 1.146-4.52 3.437a40.015 40.015 0 0 0-.477 2.163 4.49 4.49 0 0 0-.065.674c0 .876.322 1.551.966 2.026Zm4.65-2.775c-.247.957-.926 1.58-1.958 1.58-1.02 0-1.368-.69-1.184-1.58a27 27 0 0 1 .464-2.05c.265-1.034.89-1.58 1.956-1.58 1.017 0 1.348.68 1.173 1.58a29.987 29.987 0 0 1-.451 2.05Zm3.902 3.385c.05.06.122.09.214.089h1.704a.38.38 0 0 0 .238-.089.36.36 0 0 0 .138-.232l.538-2.52h1.733c1.094 0 1.95-.53 2.576-1.002.635-.471 1.057-1.2 1.266-2.186.05-.232.075-.455.075-.67 0-.745-.284-1.315-.851-1.71-.56-.394-1.303-.591-2.23-.591h-3.333a.38.38 0 0 0-.238.09.38.38 0 0 0-.138.232l-1.73 8.356a.3.3 0 0 0 .038.233Zm6.09-5.967c-.157.689-.757 1.319-1.462 1.319h-1.44l.496-2.369h1.503c.512 0 .94.102.94.665 0 .11-.012.238-.037.385Z" clip-rule="evenodd"/>
</svg>
