<svg xmlns="http://www.w3.org/2000/svg" width="24" height="24" fill="currentColor" viewBox="0 0 24 24">
  <path d="M12 3v6.652l5.625 2.516L12 3Zm0 0-5.625 9.166L12 9.652V3Zm0 13.478V21l5.625-7.785L12 16.478ZM12 21v-4.522l-5.625-3.263L12 21Z"/>
  <path d="m12 15.43 5.625-3.263L12 9.652v5.778Zm-5.625-3.263L12 15.43V9.652l-5.625 2.515Z"/>
  <path fill-rule="evenodd" d="m12 15.43-5.625-3.262L12 3l5.625 9.166L12 15.43Zm-5.25-3.528 5.162-8.41v6.115L6.75 11.902Zm-.077.229 5.239-2.327v5.364l-5.239-3.037Zm5.418-2.327v5.364l5.233-3.037-5.233-2.327Zm0-.197 5.162 2.295-5.162-8.41v6.115Z" clip-rule="evenodd"/>
  <path fill-rule="evenodd" d="m12 16.407-5.625-3.195L12 21l5.625-7.79L12 16.408Zm-4.995-2.633 4.906 2.79v4.005l-4.906-6.795Zm5.085 2.79v4.005l4.904-6.795-4.904 2.79Z" clip-rule="evenodd"/>
</svg>
