<svg xmlns="http://www.w3.org/2000/svg" width="16" height="16" fill="none" viewBox="0 0 16 16">
    <g clip-path="url(#a)">
        <path fill="#EAB308" fill-rule="evenodd"
              d="M9.139 2.107a5.953 5.953 0 0 0-2.278 0A.667.667 0 1 1 6.606.8c.92-.18 1.867-.18 2.788 0a.667.667 0 1 1-.255 1.308ZM11.18 2.1a.667.667 0 0 1 .927-.18 7.3 7.3 0 0 1 1.973 1.982.667.667 0 1 1-1.107.742 5.966 5.966 0 0 0-1.613-1.619.667.667 0 0 1-.18-.926Zm3.24 3.979a.667.667 0 0 1 .781.527c.18.92.18 1.867 0 2.788a.667.667 0 1 1-1.309-.255 5.952 5.952 0 0 0 0-2.278.667.667 0 0 1 .527-.782Zm-.52 5.101a.67.67 0 0 1 .18.927 7.3 7.3 0 0 1-1.982 1.973.667.667 0 0 1-.743-1.107 5.966 5.966 0 0 0 1.62-1.613.667.667 0 0 1 .925-.18Zm-7.821 3.24a.667.667 0 0 1 .782-.527 5.961 5.961 0 0 0 2.278 0 .667.667 0 1 1 .255 1.308c-.92.18-1.867.18-2.788 0a.667.667 0 0 1-.527-.781Zm-3.977-3.247a.667.667 0 0 1 .925.182 5.967 5.967 0 0 0 1.613 1.62.667.667 0 0 1-.747 1.104A7.3 7.3 0 0 1 1.92 12.1a.667.667 0 0 1 .182-.926Zm-.521-5.094c.361.07.597.42.527.782a5.953 5.953 0 0 0 0 2.278.667.667 0 1 1-1.309.255 7.287 7.287 0 0 1 0-2.788.667.667 0 0 1 .782-.527Zm3.246-3.977a.667.667 0 0 1-.182.925 5.967 5.967 0 0 0-1.62 1.613.667.667 0 1 1-1.104-.747 7.3 7.3 0 0 1 1.981-1.974.667.667 0 0 1 .925.183Z"
              clip-rule="evenodd"/>
    </g>
    <defs>
        <clipPath id="a">
            <path fill="#fff" d="M0 0h16v16H0z"/>
        </clipPath>
    </defs>
</svg>
