<svg xmlns="http://www.w3.org/2000/svg" width="16" height="16" fill="currentColor" viewBox="0 0 16 16">
    <rect
            width="16"
            height="16"
            transform="translate(0.289307)"
            fill="white"
            fill-opacity="0.01"
    />
    <path
            d="M14.2893 5V14H5.28931V5H14.2893ZM14.2893 4H5.28931C5.02409 4 4.76974 4.10536 4.5822 4.29289C4.39466 4.48043 4.28931 4.73478 4.28931 5V14C4.28931 14.2652 4.39466 14.5196 4.5822 14.7071C4.76974 14.8946 5.02409 15 5.28931 15H14.2893C14.5545 15 14.8089 14.8946 14.9964 14.7071C15.1839 14.5196 15.2893 14.2652 15.2893 14V5C15.2893 4.73478 15.1839 4.48043 14.9964 4.29289C14.8089 4.10536 14.5545 4 14.2893 4Z"
            fill="#ffffff"
    />
    <path
            d="M2.28931 9H1.28931V2C1.28931 1.73478 1.39466 1.48043 1.5822 1.29289C1.76974 1.10536 2.02409 1 2.28931 1H9.28931V2H2.28931V9Z"
            fill="#ffffff"
    />
</svg>


