<svg xmlns="http://www.w3.org/2000/svg" width="20" height="20" fill="currentColor" viewBox="0 0 20 20">
    <g clip-path="url(#info-clipPath)">
        <path fill-rule="evenodd"
              d="M10 2.5a7.5 7.5 0 1 0 0 15 7.5 7.5 0 0 0 0-15ZM.833 10a9.167 9.167 0 1 1 18.334 0A9.167 9.167 0 0 1 .833 10Z"
              clip-rule="evenodd"/>
        <path fill-rule="evenodd"
              d="M10 9.166c.46 0 .833.373.833.833v3.334a.833.833 0 0 1-1.667 0V9.999c0-.46.374-.833.834-.833Zm-.834-2.499c0-.46.374-.833.834-.833h.008a.833.833 0 0 1 0 1.667H10a.833.833 0 0 1-.834-.834Z"
              clip-rule="evenodd"/>
    </g>
    <defs>
        <clipPath id="info-clipPath">
            <path d="M0 0h20v20H0z"/>
        </clipPath>
    </defs>
</svg>
