<svg xmlns="http://www.w3.org/2000/svg" width="60" height="56" fill="currentColor" viewBox="0 0 60 56">
  <g clip-path="url(#leader-leaves-left-clipPath)">
    <path fill-rule="evenodd" d="M14.06 53.02a7.469 7.469 0 0 1-2.087-2.48 7.507 7.507 0 0 1-.844-3.135 7.427 7.427 0 0 1 7.483 7.143 7.441 7.441 0 0 1-4.562-1.536m7.948-4.96a7.522 7.522 0 0 1 3.997-2.7 7.562 7.562 0 0 1-5.365 8.91 7.54 7.54 0 0 1-.002-3.253 7.58 7.58 0 0 1 1.37-2.958Zm-10.146-5.1a7.478 7.478 0 0 1-1.376-2.947 7.527 7.527 0 0 1 .001-3.26 7.442 7.442 0 0 1 4.46 3.34 7.497 7.497 0 0 1 .9 5.514 7.466 7.466 0 0 1-3.985-2.647Zm8.952-2.75a7.511 7.511 0 0 1 4.54-1.567 7.564 7.564 0 0 1-7.478 7.22 7.574 7.574 0 0 1 2.938-5.652Zm-9.147-8.687a7.54 7.54 0 0 1-.03-3.253 7.579 7.579 0 0 1 1.345-2.968 7.449 7.449 0 0 1 2.678 4.9 7.53 7.53 0 0 1-1.47 5.408 7.444 7.444 0 0 1-2.523-4.087Zm9.25 1.221a7.42 7.42 0 0 1 4.79.463 7.566 7.566 0 0 1-4.211 3.7 7.492 7.492 0 0 1-5.583-.225 7.572 7.572 0 0 1 5.004-3.938Zm-3.838-10.43a7.567 7.567 0 0 1 2.883-5.678 7.477 7.477 0 0 1 1.317 5.431 7.545 7.545 0 0 1-2.813 4.85 7.47 7.47 0 0 1-1.387-4.603Zm8.614 3.58a7.44 7.44 0 0 1 4.495 1.683 7.548 7.548 0 0 1-5.015 2.476 7.468 7.468 0 0 1-5.319-1.664 7.574 7.574 0 0 1 2.65-1.899 7.53 7.53 0 0 1 3.196-.605m-1.212-11.452a7.572 7.572 0 0 1 4.528-4.484 7.512 7.512 0 0 1-.475 5.575 7.542 7.542 0 0 1-4.196 3.713 7.519 7.519 0 0 1 .143-4.804Zm7.031 6.128a7.441 7.441 0 0 1 3.716 3.02 7.513 7.513 0 0 1-5.533.768 7.455 7.455 0 0 1-4.512-3.265 7.543 7.543 0 0 1 3.108-.956 7.493 7.493 0 0 1 3.214.443m1.825-10.198a7.545 7.545 0 0 1 5.227-3.616 7.541 7.541 0 0 1-1.443 5.41 7.543 7.543 0 0 1-4.772 2.928 7.525 7.525 0 0 1 .988-4.722Zm5.832 7.282a7.447 7.447 0 0 1 3.126 3.634 7.504 7.504 0 0 1-5.578-.219 7.468 7.468 0 0 1-3.87-4.012 7.522 7.522 0 0 1 3.231-.403 7.477 7.477 0 0 1 3.091 1Zm5.924-5.836a7.431 7.431 0 0 1 4.568 1.448 7.553 7.553 0 0 1-4.89 2.73 7.472 7.472 0 0 1-5.401-1.398 7.565 7.565 0 0 1 2.557-2.024 7.524 7.524 0 0 1 3.166-.756Z" clip-rule="evenodd"/>
  </g>
  <defs>
    <clipPath id="leader-leaves-left-clipPath">
      <path d="M60 0H0v56h60z"/>
    </clipPath>
  </defs>
</svg>
