<svg xmlns="http://www.w3.org/2000/svg" width="60" height="56" fill="currentColor" viewBox="0 0 60 56">
  <g clip-path="url(#leader-leaves-right-clipPath)">
    <path fill-rule="evenodd" d="M46.253 53.02a7.469 7.469 0 0 0 2.087-2.48c.506-.97.794-2.04.843-3.135a7.427 7.427 0 0 0-7.482 7.143 7.44 7.44 0 0 0 4.562-1.536m-7.948-4.96a7.522 7.522 0 0 0-3.997-2.7 7.562 7.562 0 0 0 5.365 8.91 7.54 7.54 0 0 0 .002-3.253 7.58 7.58 0 0 0-1.37-2.958Zm10.146-5.1a7.477 7.477 0 0 0 1.376-2.947 7.529 7.529 0 0 0-.002-3.26 7.442 7.442 0 0 0-4.459 3.34 7.497 7.497 0 0 0-.9 5.514 7.465 7.465 0 0 0 3.985-2.647Zm-8.952-2.75a7.512 7.512 0 0 0-4.54-1.567 7.565 7.565 0 0 0 2.303 5.101 7.54 7.54 0 0 0 5.175 2.119 7.554 7.554 0 0 0-2.938-5.652Zm9.147-8.687a7.54 7.54 0 0 0 .03-3.253 7.579 7.579 0 0 0-1.345-2.968 7.449 7.449 0 0 0-2.678 4.9 7.53 7.53 0 0 0 1.47 5.408 7.444 7.444 0 0 0 2.523-4.087Zm-9.25 1.221a7.42 7.42 0 0 0-4.79.463 7.566 7.566 0 0 0 4.211 3.7 7.492 7.492 0 0 0 5.583-.225 7.572 7.572 0 0 0-5.004-3.938Zm3.838-10.43a7.567 7.567 0 0 0-2.883-5.678 7.476 7.476 0 0 0-1.317 5.431 7.545 7.545 0 0 0 2.813 4.85 7.47 7.47 0 0 0 1.387-4.603Zm-8.614 3.58a7.44 7.44 0 0 0-4.495 1.683 7.548 7.548 0 0 0 5.015 2.476 7.468 7.468 0 0 0 5.319-1.664 7.574 7.574 0 0 0-2.65-1.899 7.53 7.53 0 0 0-3.196-.605m1.212-11.452a7.572 7.572 0 0 0-4.528-4.484 7.512 7.512 0 0 0 .475 5.575 7.542 7.542 0 0 0 4.196 3.713 7.514 7.514 0 0 0-.143-4.804Zm-7.031 6.128a7.442 7.442 0 0 0-3.716 3.02 7.513 7.513 0 0 0 5.532.768 7.455 7.455 0 0 0 4.513-3.265 7.543 7.543 0 0 0-3.108-.956 7.494 7.494 0 0 0-3.214.443m-1.825-10.198a7.544 7.544 0 0 0-5.227-3.616 7.541 7.541 0 0 0 1.443 5.41 7.543 7.543 0 0 0 4.772 2.928 7.525 7.525 0 0 0-.988-4.722Zm-5.832 7.282a7.447 7.447 0 0 0-3.126 3.634 7.504 7.504 0 0 0 5.578-.219 7.469 7.469 0 0 0 3.87-4.012 7.522 7.522 0 0 0-3.231-.403 7.477 7.477 0 0 0-3.091 1Zm-5.924-5.836a7.431 7.431 0 0 0-4.568 1.448 7.553 7.553 0 0 0 4.89 2.73 7.472 7.472 0 0 0 5.401-1.398 7.565 7.565 0 0 0-2.557-2.024 7.524 7.524 0 0 0-3.166-.756Z" clip-rule="evenodd"/>
  </g>
  <defs>
    <clipPath id="leader-leaves-right-clipPath">
      <path d="M60 0H0v56h60z"/>
    </clipPath>
  </defs>
</svg>
