<svg xmlns="http://www.w3.org/2000/svg" width="20" height="20" fill="currentColor" viewBox="0 0 20 20">
  <path fill-rule="evenodd" d="M10 2.5a4.167 4.167 0 0 0-4.167 4.167c0 3.04-.652 5.055-1.352 6.337a7.885 7.885 0 0 1-.19.33h11.418a7.873 7.873 0 0 1-.19-.33c-.7-1.282-1.352-3.297-1.352-6.337A4.167 4.167 0 0 0 10 2.501Zm7.972 10.98-.003-.001a2.5 2.5 0 0 1-.255-.236 4.948 4.948 0 0 1-.732-1.037c-.551-1.01-1.149-2.745-1.149-5.539a5.833 5.833 0 1 0-11.666 0c0 2.794-.598 4.53-1.149 5.539a4.92 4.92 0 0 1-.732 1.037 2.5 2.5 0 0 1-.258.237A.833.833 0 0 0 2.5 15h15a.833.833 0 0 0 .472-1.52Zm-15.936-.005Zm6.146 3.295a.833.833 0 0 1 1.132.328.784.784 0 0 0 1.373 0 .833.833 0 1 1 1.46.803 2.45 2.45 0 0 1-4.294 0 .833.833 0 0 1 .329-1.132Z" clip-rule="evenodd"/>
</svg>
