<svg xmlns="http://www.w3.org/2000/svg" width="16" height="16" fill="currentColor" viewBox="0 0 16 16">
  <g clip-path="url(#li-check-circle-clipPath)">
    <path fill-rule="evenodd" d="M10.442 2.516A6 6 0 1 0 14 8v-.613a.667.667 0 0 1 1.333 0V8a7.334 7.334 0 1 1-4.348-6.702.667.667 0 1 1-.543 1.218Z" clip-rule="evenodd"/>
    <path fill-rule="evenodd" d="M15.138 2.195c.26.26.26.682 0 .943L8.473 9.81a.667.667 0 0 1-.943 0l-2-2a.667.667 0 1 1 .943-.942L8 8.397l6.195-6.202c.26-.26.682-.26.943 0Z" clip-rule="evenodd"/>
  </g>
  <defs>
    <clipPath id="li-check-circle-clipPath">
      <path d="M0 0h16v16H0z"/>
    </clipPath>
  </defs>
</svg>
