<svg xmlns="http://www.w3.org/2000/svg" width="20" height="20" fill="currentColor" viewBox="0 0 20 20">
  <path fill-rule="evenodd" d="M1.284 2.593a.833.833 0 0 1 1.015.198l4.23 4.936L9.277 2.92a.833.833 0 0 1 1.447 0l2.747 4.807L17.7 2.79a.833.833 0 0 1 1.442.744l-2.5 10a.833.833 0 0 1-.809.632H4.166a.833.833 0 0 1-.808-.631l-2.5-10a.833.833 0 0 1 .426-.943Zm2.047 3.963L4.817 12.5h10.365l1.487-5.944-2.703 3.153a.833.833 0 0 1-1.356-.129L10 5.013 7.39 9.58a.833.833 0 0 1-1.356.129L3.33 6.556Zm.002 10.11c0-.46.373-.833.833-.833h11.667a.833.833 0 0 1 0 1.667H4.166a.833.833 0 0 1-.833-.833Z" clip-rule="evenodd"/>
</svg>
