<svg xmlns="http://www.w3.org/2000/svg" width="20" height="20" fill="currentColor" viewBox="0 0 20 20">
  <g clip-path="url(#li-globe-clipPath)">
    <path fill-rule="evenodd" d="M10 2.5a7.5 7.5 0 1 0 0 15 7.5 7.5 0 0 0 0-15ZM.835 10a9.167 9.167 0 1 1 18.333 0A9.167 9.167 0 0 1 .834 10Z" clip-rule="evenodd"/>
    <path fill-rule="evenodd" d="M.834 10c0-.46.373-.834.833-.834h16.667a.833.833 0 0 1 0 1.667H1.667a.833.833 0 0 1-.833-.834Z" clip-rule="evenodd"/>
    <path fill-rule="evenodd" d="M10 .834c.235 0 .458.098.616.271a13.583 13.583 0 0 1 3.551 8.913 13.583 13.583 0 0 1-3.551 8.878.833.833 0 0 1-1.23 0 13.583 13.583 0 0 1-3.552-8.913 13.583 13.583 0 0 1 3.551-8.878.833.833 0 0 1 .616-.271Zm-2.5 9.167c.058 2.562.94 5.029 2.5 7.04a11.918 11.918 0 0 0 2.5-7.04A11.918 11.918 0 0 0 10 2.96 11.917 11.917 0 0 0 7.5 10Z" clip-rule="evenodd"/>
  </g>
  <defs>
    <clipPath id="li-globe-clipPath">
      <path d="M0 0h20v20H0z"/>
    </clipPath>
  </defs>
</svg>
