<svg xmlns="http://www.w3.org/2000/svg" width="16" height="16" fill="currentColor" viewBox="0 0 16 16">
  <path fill-rule="evenodd" d="M7.998 1.334H8a6.667 6.667 0 1 1-6.667 6.667.667.667 0 1 1 1.334 0A5.333 5.333 0 1 0 8 2.667a5.833 5.833 0 0 0-4.027 1.636L2.472 5.805a.667.667 0 1 1-.943-.942l1.506-1.507.008-.008a7.167 7.167 0 0 1 4.955-2.014Z" clip-rule="evenodd"/>
  <path fill-rule="evenodd" d="M2 1.334c.368 0 .667.298.667.667v2.666h2.667a.667.667 0 1 1 0 1.334H2a.667.667 0 0 1-.667-.667V2.001c0-.369.299-.667.667-.667ZM8 4c.368 0 .667.298.667.667v2.921l2.298 1.149a.667.667 0 1 1-.596 1.193L7.702 8.596A.667.667 0 0 1 7.333 8V4.667c0-.369.3-.667.667-.667Z" clip-rule="evenodd"/>
</svg>
