<svg xmlns="http://www.w3.org/2000/svg" width="20" height="20" fill="currentColor" viewBox="0 0 20 20">
  <path fill-rule="evenodd" d="M5 2.5a.833.833 0 0 0-.667.334L2.992 4.617a.833.833 0 0 0-.054.916l3.791 6.55a.833.833 0 1 1-1.442.835l-3.792-6.55a2.5 2.5 0 0 1 .163-2.75l.001-.002 1.34-1.782s.001 0 0 0a2.503 2.503 0 0 1 2-1h10a2.5 2.5 0 0 1 2 1l.002.001 1.33 1.78.002.002a2.5 2.5 0 0 1 .173 2.748l-.002.003-3.791 6.55a.833.833 0 0 1-1.443-.835l3.79-6.547v-.001a.833.833 0 0 0-.058-.915l-.003-.004-1.332-1.782h-.001A.833.833 0 0 0 15 2.5H5Z" clip-rule="evenodd"/>
  <path fill-rule="evenodd" d="M3.838 1.119a.833.833 0 0 1 1.143.286l4.9 8.166a.833.833 0 0 1-1.429.858l-4.9-8.167a.833.833 0 0 1 .286-1.143Z" clip-rule="evenodd"/>
  <path fill-rule="evenodd" d="M16.162 1.119a.833.833 0 0 1 .286 1.143l-4.9 8.167a.833.833 0 0 1-1.43-.858l4.9-8.166a.833.833 0 0 1 1.144-.286Z" clip-rule="evenodd"/>
  <path fill-rule="evenodd" d="M5.833 5.833c0-.46.374-.833.834-.833h6.667a.833.833 0 0 1 0 1.667H6.667a.833.833 0 0 1-.833-.834Zm4.167 5a3.333 3.333 0 1 0 0 6.666 3.333 3.333 0 0 0 0-6.666Zm-5 3.333a5 5 0 1 1 10 0 5 5 0 0 1-10 0Z" clip-rule="evenodd"/>
  <path fill-rule="evenodd" d="M8.75 13.333c0-.46.373-.833.833-.833H10c.46 0 .833.373.833.833V15a.833.833 0 0 1-1.666 0v-.945a.833.833 0 0 1-.417-.722Z" clip-rule="evenodd"/>
</svg>
