<svg xmlns="http://www.w3.org/2000/svg" width="16" height="16" fill="currentColor" viewBox="0 0 16 16">
  <path fill-rule="evenodd" d="M6 1.333c0-.368.298-.666.667-.666h2.666a.667.667 0 1 1 0 1.333H6.667A.667.667 0 0 1 6 1.333ZM8 6c.368 0 .667.298.667.667v2.666a.667.667 0 0 1-1.333 0V6.667A.665.665 0 0 1 8 6Z" clip-rule="evenodd"/>
  <path fill-rule="evenodd" d="M7.995 4.667A4.667 4.667 0 0 0 3.328 8.75a.667.667 0 1 1-1.323-.167 6 6 0 0 1 5.998-5.25 6 6 0 1 1-3.977 10.5l-.002-.001-1.8-1.6a.667.667 0 0 1 .886-.997l1.798 1.598v.001A4.667 4.667 0 1 0 8 4.667h-.004Z" clip-rule="evenodd"/>
  <path fill-rule="evenodd" d="M2 11.333c0-.368.298-.666.667-.666H6A.667.667 0 0 1 6 12H3.333v2.667a.667.667 0 1 1-1.333 0v-3.334Z" clip-rule="evenodd"/>
</svg>
