<svg xmlns="http://www.w3.org/2000/svg" width="16" height="16" fill="currentColor" viewBox="0 0 16 16">
  <path fill-rule="evenodd" d="M1.253 3.253a2 2 0 0 1 1.414-.586h10.666a2 2 0 0 1 2 2V6a.667.667 0 0 1-.666.667 1.333 1.333 0 0 0 0 2.667c.368 0 .666.298.666.666v1.334a2 2 0 0 1-2 2H2.667a2 2 0 0 1-2-2V10c0-.368.298-.666.666-.666a1.333 1.333 0 1 0 0-2.667A.667.667 0 0 1 .667 6V4.667a2 2 0 0 1 .586-1.414ZM2.667 4A.667.667 0 0 0 2 4.667v.751a2.667 2.667 0 0 1 0 5.164v.752a.667.667 0 0 0 .667.666h10.666a.667.667 0 0 0 .667-.666v-.752a2.667 2.667 0 0 1 0-5.164v-.751A.667.667 0 0 0 13.333 4H2.667Z" clip-rule="evenodd"/>
  <path fill-rule="evenodd" d="M8.667 2.667c.368 0 .666.298.666.667v1.333a.667.667 0 1 1-1.333 0V3.334c0-.369.298-.667.667-.667Zm0 8c.368 0 .666.299.666.667v1.333a.667.667 0 1 1-1.333 0v-1.333c0-.368.298-.667.667-.667Zm0-4c.368 0 .666.298.666.667v1.333a.667.667 0 1 1-1.333 0V7.334c0-.369.298-.667.667-.667Z" clip-rule="evenodd"/>
</svg>
