<svg xmlns="http://www.w3.org/2000/svg" width="20" height="20" fill="currentColor" viewBox="0 0 20 20">
  <path fill-rule="evenodd" d="M2.054 12.886A4.167 4.167 0 0 1 5 11.666h5a4.167 4.167 0 0 1 4.167 4.167v1.666a.833.833 0 1 1-1.667 0v-1.666a2.5 2.5 0 0 0-2.5-2.5H5a2.5 2.5 0 0 0-2.5 2.5v1.666a.833.833 0 1 1-1.667 0v-1.666c0-1.105.44-2.165 1.22-2.947ZM7.5 3.333a2.5 2.5 0 1 0 0 5 2.5 2.5 0 0 0 0-5Zm-4.167 2.5a4.167 4.167 0 1 1 8.334 0 4.167 4.167 0 0 1-8.333 0ZM15.027 12.4a.833.833 0 0 1 1.015-.598 4.167 4.167 0 0 1 3.125 4.031v1.668a.833.833 0 0 1-1.667 0v-1.667a2.501 2.501 0 0 0-1.875-2.418.833.833 0 0 1-.598-1.015Zm-2.501-9.998a.833.833 0 0 1 1.014-.6 4.167 4.167 0 0 1 0 8.073.833.833 0 0 1-.413-1.615 2.5 2.5 0 0 0 0-4.844.833.833 0 0 1-.6-1.014Z" clip-rule="evenodd"/>
</svg>
