<svg xmlns="http://www.w3.org/2000/svg" width="18" height="18" fill="none" viewBox="0 0 18 18">
  <path fill="#fff" fill-opacity=".2" d="M15.991 8.656a6.998 6.998 0 0 0-.4-2.013l-.124-.322a7.001 7.001 0 0 0-1.28-2.021l-.237-.25a7 7 0 0 0-1.957-1.377l-.314-.14a7 7 0 0 0-2.335-.524L9 2a7 7 0 0 0-2.357.41l-.322.123a7 7 0 0 0-3.648 3.474l-.14.314A7 7 0 0 0 2 9l.009.344a7 7 0 0 0 .524 2.335l.14.314A7 7 0 0 0 4.05 13.95l.25.238A7.001 7.001 0 0 0 9 16l.344-.009a6.998 6.998 0 0 0 2.335-.524l.314-.14a6.998 6.998 0 0 0 1.957-1.377l.238-.25a7.001 7.001 0 0 0 1.279-2.021l.124-.322A7 7 0 0 0 16 9l-.009-.344Zm1.998.786a9.002 9.002 0 0 1-.514 2.59l-.16.412a9 9 0 0 1-1.646 2.599l-.305.321a9 9 0 0 1-2.515 1.772l-.405.178a9.005 9.005 0 0 1-3.002.675L9 18a9.003 9.003 0 0 1-6.043-2.331l-.321-.305A9.001 9.001 0 0 1 .864 12.85l-.178-.405A9.001 9.001 0 0 1 .01 9.442L0 9c0-1.182.233-2.352.686-3.444l.178-.405a9 9 0 0 1 1.772-2.515l.321-.305A9 9 0 0 1 5.556.686l.413-.16A9 9 0 0 1 9 0l.442.01a9 9 0 0 1 3.002.676l.405.178a9.001 9.001 0 0 1 2.515 1.772l.305.321a9 9 0 0 1 1.645 2.599l.16.413A9 9 0 0 1 18 9l-.01.442Z"/>
</svg>
