<svg xmlns="http://www.w3.org/2000/svg" width="132" height="30" fill="none" viewBox="0 0 132 30">
  <path fill="#9314F5" d="M14.06 29.692c7.765 0 14.06-6.294 14.06-14.06 0-7.765-6.295-14.06-14.06-14.06C6.295 1.572 0 7.867 0 15.632c0 7.766 6.295 14.06 14.06 14.06Z"/>
  <path fill="#9314F5" d="M.956 19.285v1.436c.147.38.311.755.49 1.118v-2.554h-.49Zm1.603 2.703v1.726c.196.277.4.55.613.811v-2.537h-.613Zm2.123 2.255v1.86c.238.214.483.418.735.614v-2.474h-.735Zm2.613 1.714v2c.24.132.485.257.735.377v-2.377h-.735Zm2.963 1.09v2.118c.243.07.488.13.736.187v-2.304h-.736Zm3.469.378v2.258c.11.002.22.007.333.007.135 0 .27-.007.402-.01v-2.255h-.735Zm3.468-.395v2.305c.248-.057.493-.12.735-.19V27.03h-.735Zm2.956-1.105v2.38c.25-.12.495-.25.736-.385v-1.995h-.736Zm2.606-1.728v2.476c.252-.198.497-.404.735-.618v-1.858h-.735Zm2.846-2.263h-.613v2.537c.213-.264.419-.536.613-.816v-1.72Zm1.593-2.713h-.49v2.559c.179-.37.343-.75.49-1.135v-1.424Z"/>
  <path fill="#FFF176" d="M14.06 28.428c7.765 0 14.06-6.295 14.06-14.06 0-7.766-6.295-14.06-14.06-14.06C6.295.308 0 6.602 0 14.368c0 7.765 6.295 14.06 14.06 14.06Z"/>
  <path fill="url(#logo-linearGradient-a)" d="M14.06 27.176c7.073 0 12.807-5.734 12.807-12.808 0-7.073-5.734-12.807-12.807-12.807S1.253 7.295 1.253 14.368c0 7.074 5.734 12.808 12.807 12.808Z"/>
  <path fill="#9314F5" d="M1.228 14.858c-.09-1.686.201-3.397.79-5a13.257 13.257 0 0 1 2.735-4.331c2.377-2.515 5.829-3.974 9.307-3.991 3.478.02 6.932 1.476 9.305 3.993A13.207 13.207 0 0 1 26.1 9.858c.59 1.605.883 3.314.79 5h-.05a12.94 12.94 0 0 0-.98-4.902 12.943 12.943 0 0 0-2.767-4.16 12.82 12.82 0 0 0-4.143-2.79 12.697 12.697 0 0 0-9.785 0 12.82 12.82 0 0 0-4.143 2.79 12.918 12.918 0 0 0-3.747 9.062h-.047Z"/>
  <path fill="url(#logo-linearGradient-b)" d="M14.06.31C6.295.31 0 6.605 0 14.37c0 7.766 6.295 14.06 14.06 14.06 7.765 0 14.06-6.294 14.06-14.06C28.12 6.606 21.825.31 14.06.31Zm0 26.868c-7.074 0-12.807-5.733-12.807-12.808 0-7.076 5.733-12.81 12.807-12.81 7.074 0 12.807 5.734 12.807 12.808s-5.733 12.81-12.807 12.81Z"/>
  <path fill="#fff" d="M7.04 8h2.896v13.506H7.04V8.001Z"/>
  <path fill="#fff" fill-rule="evenodd" d="M12.764 8a5.052 5.052 0 1 1 0 10.104 5.052 5.052 0 0 1 0-10.104Zm0 2.694a2.357 2.357 0 1 0 0 4.713 2.357 2.357 0 0 0 0-4.713Z" clip-rule="evenodd"/>
  <path fill="#fff" d="M19.174 20.321c-.846-.151-1.486-.492-1.919-1.02-.433-.53-.563-1.277-.39-2.24L18.89 8l2.803.501-1.976 8.775c-.052.292-.018.524.102.696.134.175.34.287.618.337l2.115.528c.374.093.612.46.544.84l-.267 1.494-3.656-.851Zm18.273 2.463V10.281h2.13l.052 1.974-.225-.104c.23-.681.606-1.195 1.125-1.54.53-.359 1.148-.538 1.852-.538.877 0 1.605.22 2.182.658a3.942 3.942 0 0 1 1.315 1.749c.289.727.433 1.535.433 2.423 0 .89-.15 1.697-.45 2.424-.289.727-.727 1.31-1.316 1.748-.577.44-1.304.658-2.181.658-.462 0-.894-.08-1.298-.242a2.968 2.968 0 0 1-1.022-.692 2.577 2.577 0 0 1-.588-1.056l.207-.174v5.215h-2.215Zm4.398-4.851c.669 0 1.194-.265 1.575-.796.392-.543.589-1.287.589-2.234 0-.946-.197-1.685-.589-2.216-.38-.542-.906-.813-1.575-.813-.45 0-.837.115-1.16.346-.323.22-.577.554-.762 1.004-.173.45-.26 1.01-.26 1.68 0 .669.087 1.229.26 1.679.173.45.421.79.744 1.021.335.22.728.329 1.178.329Zm5.32 1.593V10.28h2.077l.087 2.562-.19-.034c.138-.889.398-1.53.778-1.922.393-.404.924-.606 1.593-.606h.849v1.904h-.866c-.473 0-.866.07-1.177.208a1.457 1.457 0 0 0-.71.658c-.15.289-.225.67-.225 1.143v5.332h-2.216Zm9.541.207c-.912 0-1.714-.196-2.406-.588a4.186 4.186 0 0 1-1.593-1.697c-.37-.727-.554-1.575-.554-2.545 0-.98.185-1.829.554-2.544a4.069 4.069 0 0 1 1.593-1.68c.692-.404 1.494-.606 2.406-.606.912 0 1.708.202 2.39.606.68.393 1.205.953 1.575 1.68.38.715.57 1.563.57 2.544 0 .97-.19 1.818-.57 2.545a4.07 4.07 0 0 1-1.576 1.697c-.68.392-1.477.588-2.389.588Zm0-1.8c.716 0 1.264-.265 1.645-.796.392-.531.588-1.276.588-2.234 0-.946-.196-1.685-.588-2.216-.381-.542-.93-.813-1.645-.813s-1.27.271-1.662.813c-.392.531-.588 1.27-.588 2.216 0 .958.196 1.703.588 2.234.393.53.947.796 1.662.796Zm9.396 1.8c-.911 0-1.714-.196-2.406-.588a4.186 4.186 0 0 1-1.593-1.697c-.369-.727-.554-1.575-.554-2.545 0-.98.185-1.829.554-2.544a4.069 4.069 0 0 1 1.593-1.68c.692-.404 1.495-.606 2.406-.606.912 0 1.709.202 2.39.606.68.393 1.205.953 1.575 1.68.38.715.571 1.563.571 2.544 0 .97-.19 1.818-.571 2.545a4.07 4.07 0 0 1-1.576 1.697c-.68.392-1.477.588-2.389.588Zm0-1.8c.716 0 1.264-.265 1.645-.796.392-.531.589-1.276.589-2.234 0-.946-.197-1.685-.589-2.216-.38-.542-.93-.813-1.645-.813s-1.27.271-1.662.813c-.392.531-.588 1.27-.588 2.216 0 .958.196 1.703.589 2.234.392.53.946.796 1.661.796Zm5.995 1.593V9.918c0-.831.23-1.483.692-1.957.474-.484 1.195-.727 2.164-.727h1.8v1.714H75.37c-.358 0-.623.093-.797.277-.161.185-.242.456-.242.814v9.487h-2.233Zm-1.316-7.289v-1.713h5.851v1.713h-5.85Zm31.755 7.429c-.678 0-1.222-.175-1.631-.526-.409-.35-.613-.912-.613-1.683V7.215h2.244V17.23c0 .234.059.409.176.526.128.117.304.175.526.175h.684v1.736h-1.386Zm5.034.211c-.947 0-1.701-.31-2.262-.93-.549-.631-.824-1.502-.824-2.613v-6.032h2.245v5.471c0 .784.128 1.362.385 1.736.269.363.673.544 1.21.544.608 0 1.076-.199 1.403-.596.339-.41.509-1 .509-1.772v-5.383h2.245v9.364h-2.052l-.053-2.578.281.088c-.141.889-.474 1.56-1 2.017-.526.456-1.222.684-2.087.684Zm10.398 0c-.935 0-1.748-.199-2.438-.596a4.244 4.244 0 0 1-1.613-1.72c-.374-.736-.561-1.595-.561-2.577s.187-1.835.561-2.56a4.245 4.245 0 0 1 1.613-1.719c.69-.41 1.503-.614 2.438-.614.795 0 1.502.14 2.122.421a3.75 3.75 0 0 1 1.508 1.21c.398.515.643 1.146.737 1.894l-2.315.123c-.094-.596-.328-1.046-.702-1.35-.362-.316-.812-.474-1.35-.474-.725 0-1.286.275-1.684.824-.397.538-.596 1.286-.596 2.245 0 .97.199 1.725.596 2.262.398.538.959.807 1.684.807.549 0 1.005-.158 1.368-.474.374-.315.602-.806.684-1.473l2.315.106c-.094.748-.334 1.397-.719 1.946-.386.55-.889.976-1.509 1.28-.619.293-1.332.439-2.139.439Zm5.056-.211V7.216h2.245v7.312l3.84-4.226h2.771l-3.665 3.893 3.788 5.471h-2.525l-2.736-4.138-1.473 1.56v2.578h-2.245Zm-38.322.076c-.911 0-1.713-.197-2.406-.589a4.184 4.184 0 0 1-1.593-1.697c-.369-.727-.554-1.575-.554-2.544 0-.981.185-1.83.554-2.545a4.068 4.068 0 0 1 1.593-1.68c.692-.403 1.495-.605 2.406-.605.912 0 1.708.202 2.39.606.68.392 1.205.952 1.575 1.679.38.715.571 1.564.571 2.545 0 .97-.19 1.817-.571 2.544a4.07 4.07 0 0 1-1.576 1.697c-.68.393-1.477.589-2.389.589Zm0-1.8c.716 0 1.264-.266 1.645-.797.392-.531.589-1.275.589-2.233 0-.947-.197-1.685-.589-2.216-.38-.543-.93-.814-1.645-.814s-1.27.271-1.662.814c-.392.53-.588 1.27-.588 2.216 0 .958.196 1.702.588 2.233.393.53.947.796 1.662.796Zm5.995 1.592V9.926c0-.831.23-1.483.692-1.956.473-.485 1.195-.727 2.164-.727h1.8v1.714H93.97c-.358 0-.623.092-.797.277-.161.184-.242.455-.242.813v9.487h-2.233Zm-1.316-7.288v-1.714h5.851v1.714h-5.85Z"/>
  <defs>
    <linearGradient id="logo-linearGradient-a" x1="14.06" x2="14.06" y1=".308" y2="29.692" gradientUnits="userSpaceOnUse">
      <stop stop-color="#9A35F9"/>
      <stop offset="1" stop-color="#7E0687"/>
    </linearGradient>
    <linearGradient id="logo-linearGradient-b" x1="14.06" x2="14.06" y1=".31" y2="28.43" gradientUnits="userSpaceOnUse">
      <stop stop-color="#CE9FFB"/>
      <stop offset="1" stop-color="#D257E5"/>
    </linearGradient>
  </defs>
</svg>
