<svg xmlns="http://www.w3.org/2000/svg" width="41" height="22" fill="none" viewBox="0 0 41 22">
  <path fill="#fff" fill-opacity=".2" d="M9.4 1.227A4 4 0 0 1 12.283 0H36a5 5 0 0 1 5 5v12a5 5 0 0 1-5 5H12.283A4 4 0 0 1 9.4 20.773l-6.066-6.307a5 5 0 0 1 0-6.932L9.4 1.227Z"/>
  <path fill="#fff" d="M15.96 15V6.48h2.1l2.352 6.6 2.352-6.6h2.1V15h-1.56V9.12l-2.148 5.868h-1.488L17.52 9.12V15h-1.56Zm13.363.144c-.64 0-1.196-.136-1.668-.408a2.821 2.821 0 0 1-1.092-1.176c-.256-.504-.384-1.092-.384-1.764 0-.672.128-1.256.384-1.752a2.846 2.846 0 0 1 1.08-1.176c.472-.28 1.02-.42 1.644-.42.608 0 1.14.136 1.596.408.464.272.82.664 1.068 1.176.248.512.372 1.128.372 1.848v.348h-4.548c.032.56.184.984.456 1.272.28.28.648.42 1.104.42.344 0 .628-.076.852-.228.232-.16.392-.38.48-.66l1.572.096a2.596 2.596 0 0 1-1.044 1.476c-.512.36-1.136.54-1.872.54Zm-1.548-3.948h2.964c-.032-.52-.18-.904-.444-1.152-.264-.256-.6-.384-1.008-.384-.408 0-.748.132-1.02.396-.264.264-.428.644-.492 1.14Z"/>
</svg>
