<svg xmlns="http://www.w3.org/2000/svg" width="36" height="29" fill="none" viewBox="0 0 36 29">
  <path fill="#AB9FF2" d="M4.26 28.8c4.594 0 8.046-3.84 10.106-6.872a5.802 5.802 0 0 0-.39 1.988c0 1.77 1.06 3.032 3.148 3.032 2.866 0 5.93-2.416 7.516-5.02-.102.34-.157.693-.166 1.048 0 1.234.724 2.012 2.2 2.012 4.648 0 9.326-7.918 9.326-14.842C36 4.75 33.16 0 26.032 0 13.504 0 0 14.708 0 24.21c0 3.732 2.088 4.59 4.26 4.59ZM21.718 9.556c0-1.342.78-2.282 1.92-2.282 1.114 0 1.894.94 1.894 2.28 0 1.344-.78 2.31-1.894 2.31-1.14 0-1.92-.966-1.92-2.308Zm5.958 0c0-1.342.78-2.282 1.92-2.282 1.114 0 1.894.94 1.894 2.28 0 1.344-.78 2.31-1.894 2.31-1.14 0-1.92-.966-1.92-2.308Z"/>
</svg>
