<svg xmlns="http://www.w3.org/2000/svg" width="21" height="20" fill="currentColor" viewBox="0 0 21 20">
    <path fill-rule="evenodd"
          d="M7.167 2.5a4.167 4.167 0 1 0 0 8.333 4.167 4.167 0 0 0 0-8.333ZM1.333 6.666a5.833 5.833 0 1 1 11.667 0 5.833 5.833 0 0 1-11.667 0Z"
          clip-rule="evenodd"/>
    <path fill-rule="evenodd"
          d="M14.794 8.351a.833.833 0 0 1 1.072-.49 5.833 5.833 0 1 1-7.535 7.418.833.833 0 0 1 1.571-.557 4.167 4.167 0 1 0 5.382-5.299.833.833 0 0 1-.49-1.072ZM5.5 5c0-.46.373-.833.833-.833h.834c.46 0 .833.373.833.833v3.334a.833.833 0 0 1-1.667 0v-2.5A.833.833 0 0 1 5.5 5Z"
          clip-rule="evenodd"/>
    <path fill-rule="evenodd"
          d="M13.84 10.973a.833.833 0 0 1 1.179.009l.583.591c.321.326.32.85-.004 1.175l-2.35 2.35a.833.833 0 0 1-1.179-1.179l1.765-1.765-.002-.002a.833.833 0 0 1 .008-1.179Z"
          clip-rule="evenodd"/>
</svg>
