<svg xmlns="http://www.w3.org/2000/svg" width="48" height="48" fill="none" viewBox="0 0 48 48">
  <path fill="#F5841F" d="m39.256 23.979 1.62-1.86-.706-.504 1.126-1.01-.868-.642 1.126-.826-.726-.552 1.172-5.6L40.218 7.8m0 0-11.446 4.154h-9.544L7.78 7.8 6 12.987l1.196 5.6-.75.55 1.148.826-.866.642 1.124 1.01-.702.504 1.618 1.86-2.464 7.434 2.276 7.594 7.998-2.156 1.548 1.24 3.166 2.11h5.416l3.168-2.112 1.546-1.238 8.02 2.156 2.3-7.594-2.486-7.434"/>
  <path fill="#E27625" d="M40.218 7.8 26.17 17.92l2.602-5.965L40.218 7.8Zm-32.436 0 13.932 10.213-2.486-6.06L7.782 7.8Zm27.394 23.475-3.754 5.552 8.02 2.158 2.3-7.596-6.566-.114Zm-28.872.114 2.276 7.596 7.998-2.158-3.73-5.552-6.544.114Z"/>
  <path fill="#E27625" d="m16.156 21.866-2.228 3.28 7.926.346-.258-8.306-5.44 4.68Zm15.712 0-5.534-4.772-.164 8.398 7.926-.344-2.228-3.282Zm-15.29 14.962 4.808-2.25-4.152-3.12-.656 5.37ZM26.64 34.58l4.782 2.248-.656-5.37-4.126 3.122Z"/>
  <path fill="#D7C1B3" d="m31.422 36.828-4.784-2.25.4 3.03-.048 1.284 4.432-2.064Zm-14.844 0 4.456 2.064-.024-1.284.376-3.03-4.808 2.25Z"/>
  <path fill="#2F343B" d="m21.104 29.439-3.964-1.126 2.814-1.262 1.15 2.388Zm5.792 0 1.172-2.388 2.816 1.262-3.988 1.126Z"/>
  <path fill="#CC6228" d="m16.578 36.828.702-5.554-4.432.114 3.73 5.44Zm14.164-5.554.68 5.552 3.754-5.438-4.434-.114Zm3.354-6.126-7.926.344.726 3.946 1.172-2.386 2.816 1.262 3.212-3.166ZM17.14 28.314l2.814-1.262 1.15 2.386.75-3.946-7.926-.344 3.212 3.166Z"/>
  <path fill="#E27625" d="m13.928 25.148 3.306 6.31-.094-3.144-3.212-3.166Zm16.956 3.166-.118 3.144 3.33-6.31-3.212 3.166Zm-9.03-2.822-.75 3.946.938 4.68.21-6.148-.398-2.478Zm4.316 0-.4 2.454.188 6.174.94-4.68-.728-3.948Z"/>
  <path fill="#F5841F" d="m26.896 29.439-.938 4.68.68.46 4.128-3.123.118-3.143-3.988 1.126Zm-9.756-1.127.094 3.144 4.152 3.12.656-.46-.94-4.68-3.962-1.123Z"/>
  <path fill="#C0AD9E" d="m26.99 38.89.048-1.284-.376-.3h-5.324l-.328.3.024 1.284-4.456-2.066 1.548 1.24 3.166 2.134h5.416l3.168-2.134 1.546-1.24-4.432 2.066Z"/>
  <path fill="#2F343B" d="m26.64 34.581-.68-.46h-3.92l-.654.46-.376 3.028.328-.3h5.324l.376.3-.398-3.028Z"/>
  <path fill="#763E1A" d="m40.828 18.585 1.172-5.6L40.218 7.8l-13.58 9.776 5.23 4.29 7.388 2.112 1.62-1.86-.706-.504 1.126-.988-.868-.664 1.126-.826-.726-.552ZM6 12.987l1.196 5.6-.75.55 1.126.848-.868.642 1.126.988-.704.504 1.64 1.86 7.39-2.112 5.23-4.29L7.78 7.8 6 12.987Z"/>
  <path fill="#F5841F" d="m39.256 23.977-7.388-2.112 2.228 3.28-3.33 6.312 4.41-.07h6.566l-2.486-7.41Zm-23.1-2.112-7.388 2.112-2.464 7.41h6.544l4.386.07-3.306-6.31 2.228-3.282Zm10.014 3.626.468-7.916 2.134-5.622h-9.544l2.158 5.62.468 7.918.188 2.478v6.15h3.916l.024-6.15.188-2.478Z"/>
</svg>
