<svg xmlns="http://www.w3.org/2000/svg" width="48" height="48" fill="none" viewBox="0 0 48 48">
  <path fill="#3B99FC" d="M13.368 17.419c5.87-5.626 15.39-5.626 21.26 0l.706.678a.7.7 0 0 1 0 1.02l-2.416 2.316a.388.388 0 0 1-.532 0l-.972-.932c-4.096-3.926-10.736-3.926-14.832 0l-1.04.996a.388.388 0 0 1-.532 0l-2.418-2.314a.7.7 0 0 1 0-1.02l.776-.744Zm26.26 4.792 2.15 2.06a.7.7 0 0 1 0 1.02l-9.7 9.296a.78.78 0 0 1-1.062 0l-6.886-6.598a.194.194 0 0 0-.264 0l-6.884 6.6a.78.78 0 0 1-1.064 0l-9.7-9.3a.7.7 0 0 1 0-1.016L8.37 22.21a.774.774 0 0 1 1.062 0l6.884 6.598a.194.194 0 0 0 .266 0l6.884-6.6a.774.774 0 0 1 1.064 0l6.884 6.6a.194.194 0 0 0 .266 0l6.884-6.6a.78.78 0 0 1 1.062 0"/>
</svg>
