<svg xmlns="http://www.w3.org/2000/svg" width="512" height="512" fill="none" viewBox="0 0 512 512">
  <path fill="#9314F5" d="M256 512c141.385 0 256-109.682 256-244.981C512 131.72 397.385 22.038 256 22.038S0 131.72 0 267.019C0 402.318 114.615 512 256 512Z"/>
  <path fill="#9314F5" d="M17.406 330.656v25.028a234.752 234.752 0 0 0 8.926 19.475v-44.503h-8.926Zm29.188 47.108v30.068c3.57 4.826 7.275 9.567 11.158 14.137v-44.205H46.594Zm38.65 39.293v32.416a244.03 244.03 0 0 0 13.39 10.678v-43.094h-13.39Zm47.576 29.854v34.851a275.113 275.113 0 0 0 13.389 6.577v-41.428H132.82Zm53.958 19.006v36.901a277.843 277.843 0 0 0 13.389 3.245v-40.146h-13.389Zm63.152 6.577v39.335c2.009.043 4.017.128 6.07.128 2.455 0 4.909-.128 7.319-.171v-39.292H249.93Zm63.152-6.876v40.146a276.369 276.369 0 0 0 13.389-3.288v-36.858h-13.389Zm53.825-19.262v41.471c4.552-2.093 9.015-4.357 13.389-6.706v-34.765h-13.389Zm47.442-30.11v43.136a247.737 247.737 0 0 0 13.389-10.763v-32.373h-13.389Zm51.816-39.421h-11.158v44.204c3.883-4.613 7.632-9.353 11.158-14.222v-29.982Zm29.009-47.279h-8.926v44.588a247.247 247.247 0 0 0 8.926-19.774v-24.814Z"/>
  <path fill="#FFF176" d="M256 489.962c141.385 0 256-109.682 256-244.981C512 109.682 397.385 0 256 0S0 109.682 0 244.981C0 380.28 114.615 489.962 256 489.962Z"/>
  <path fill="url(#logo-icon-a-linearGradient)" d="M256 468.151c128.789 0 233.194-99.911 233.194-223.157 0-123.246-104.405-223.156-233.194-223.156S22.806 121.748 22.806 244.994c0 123.246 104.405 223.157 233.194 223.157Z"/>
  <path fill="#9314F5" d="M22.36 253.53c-1.652-29.385 3.659-59.196 14.37-87.128 11.158-27.846 28.251-53.6 49.808-75.467 43.291-43.82 106.131-69.232 169.461-69.53 63.331.34 126.215 25.71 169.417 69.573 21.601 21.824 38.65 47.621 49.808 75.424 10.756 27.975 16.067 57.743 14.371 87.128h-.893c-.093-29.313-6.156-58.327-17.852-85.419-11.717-27.062-28.832-51.68-50.388-72.478-21.569-20.776-47.197-37.29-75.425-48.603-28.221-11.277-58.5-17.084-89.082-17.084-30.583 0-60.862 5.807-89.083 17.084-28.228 11.312-53.856 27.827-75.425 48.603-21.565 20.791-38.68 45.411-50.388 72.478-11.695 27.092-17.76 56.106-17.852 85.419h-.848Z"/>
  <path fill="url(#logo-icon-b-linearGradient)" d="M256 .05C114.611.05 0 109.726 0 245.03c0 135.304 114.611 244.981 256 244.981S512 380.334 512 245.03C512 109.727 397.389.05 256 .05Zm0 468.137c-128.803 0-233.194-99.897-233.194-223.157C22.806 121.728 127.197 21.831 256 21.831s233.194 99.897 233.194 223.157c0 123.259-104.391 223.199-233.194 223.199Z"/>
  <path fill="#fff" d="M120 133.014h52.726v245.899H120V133.014Z"/>
  <path fill="#fff" fill-rule="evenodd" d="M224.22 133c50.79 0 91.974 41.183 91.974 91.973-.002 50.789-41.185 91.957-91.974 91.957-50.786-.003-91.955-41.17-91.957-91.957 0-50.788 41.17-91.97 91.957-91.973Zm0 49.051c-23.696.004-42.902 19.209-42.905 42.906 0 23.7 19.207 42.918 42.905 42.922 23.702 0 42.922-19.22 42.922-42.922-.003-23.699-19.222-42.906-42.922-42.906Z" clip-rule="evenodd"/>
  <path fill="#fff" d="M340.939 357.337c-15.418-2.755-27.067-8.951-34.946-18.589-7.879-9.638-10.251-23.229-7.115-40.774l36.904-164.952 51.04 9.121-35.978 159.768c-.95 5.317-.334 9.542 1.85 12.675 2.449 3.181 6.199 5.223 11.25 6.126l38.509 9.618c6.813 1.702 11.144 8.39 9.908 15.303l-4.86 27.196-66.562-15.492Z"/>
  <defs>
    <linearGradient id="logo-icon-a-linearGradient" x1="256" x2="256" y1="0" y2="512" gradientUnits="userSpaceOnUse">
      <stop stop-color="#9A35F9"/>
      <stop offset="1" stop-color="#7E0687"/>
    </linearGradient>
    <linearGradient id="logo-icon-b-linearGradient" x1="256" x2="256" y1=".049" y2="490.011" gradientUnits="userSpaceOnUse">
      <stop stop-color="#CE9FFB"/>
      <stop offset="1" stop-color="#D257E5"/>
    </linearGradient>
  </defs>
</svg>
